<?xml version="1.0"?>
<svg width="50" height="55" xmlns="http://www.w3.org/2000/svg" xmlns:svg="http://www.w3.org/2000/svg" enable-background="new 0 0 500 500" version="1.1" xml:space="preserve">
 <g class="layer">
  <title>Layer 1</title>
  <g id="OBJECTS">
   <g id="svg_2">
    <g id="svg_151">
     <g id="svg_223">
      <g id="svg_235">
       <path d="m23.23,46.35c-5.68,0 -12.37,-0.84 -20.03,-2.54c-1,-0.21 -1.63,-1.2 -1.42,-2.2c0.22,-1 1.2,-1.65 2.22,-1.42c19.28,4.26 32.05,2.93 36.91,-3.82c7.67,-10.68 -5.01,-32.02 -5.14,-32.24c-0.53,-0.87 -0.25,-2.02 0.63,-2.54c0.88,-0.53 2.02,-0.25 2.55,0.63c0.58,0.95 14.06,23.64 4.98,36.3c-3.74,5.22 -10.67,7.84 -20.7,7.84l0,-0.01z" fill="#343B54" id="svg_236"/>
       <path d="m3.31,51.01c-0.19,0 -0.36,-0.01 -0.52,-0.04c-1.03,-0.14 -1.73,-1.06 -1.61,-2.08c0.14,-1.01 1.05,-1.73 2.08,-1.6c0.51,0.06 2.48,-0.56 4.27,-1.94c1.14,-0.89 1.71,-1.72 1.77,-2.15c0.28,-2.3 -1.26,-5.94 -2.74,-6.37c-0.98,-0.28 -1.55,-1.31 -1.25,-2.3c0.28,-0.98 1.31,-1.55 2.3,-1.25c3.87,1.13 5.79,7.01 5.36,10.4c-0.25,1.98 -1.87,3.61 -3.18,4.63c-1.77,1.35 -4.46,2.71 -6.49,2.71l0.01,-0.01z" fill="#343B54" id="svg_237"/>
      </g>
     </g>
    </g>
   </g>
  </g>
 </g>
</svg>