<?xml version="1.0"?>
<svg width="750" height="600" xmlns="http://www.w3.org/2000/svg" xmlns:svg="http://www.w3.org/2000/svg" xmlns:xlink="http://www.w3.org/1999/xlink" enable-background="new 0 0 750 500" version="1.1" xml:space="preserve">
 <g class="layer">
  <title>Layer 1</title>
  <g id="BACKGROUND">
   <radialGradient cx="372.26" cy="414.48" gradientUnits="userSpaceOnUse" id="SVGID_1_" r="502.52">
    <stop offset="0" stop-color="#2992CF"/>
    <stop offset="0.85" stop-color="#003775"/>
   </radialGradient>
   <rect fill="url(#SVGID_1_)" height="500" id="svg_1" transform="translate(4.11765 0) matrix(1 0 0 1.2 -4.11765 0)" width="750"/>
  </g>
  <g id="OBJECTS" transform="matrix(1 0 0 1 0 0)">
   <g id="svg_2">
    <defs>
     <rect height="500" id="SVGID_00000060737582072829286510000006598236796506009240_" width="750"/>
    </defs>
    <clipPath id="SVGID_00000129904610251026089950000014475073480764513160_">
     <use id="svg_3" overflow="visible" xlink:href="#SVGID_00000060737582072829286510000006598236796506009240_"/>
    </clipPath>
    <g clip-path="url(#SVGID_00000129904610251026089950000014475073480764513160_)" id="svg_17" opacity="0.2">
     <path d="m-8.26,175.65c0,0 18.58,-34.84 41.81,-15.49s30.19,44.9 30.19,44.9s18.58,-10.06 26.32,-1.54c7.75,8.51 24,40.25 24,40.25s11.62,-9.29 25.55,3.1c13.94,12.39 16.26,30.19 16.26,30.19s10.84,-17.8 28.65,-13.16c17.8,4.65 34.06,34.07 34.06,34.07s7.74,16.26 34.84,22.45c27.09,6.2 32.51,20.13 34.06,26.32c1.55,6.2 24,13.94 50.33,14.71c26.32,0.78 40.25,18.58 50.32,27.1c10.06,8.52 60.38,14.71 70.45,26.32c10.06,11.62 10.06,15.49 10.06,15.49s-238.45,-18.58 -310.45,-22.45c-72,-3.88 -196.64,-31.75 -196.64,-31.75l30.19,-200.51z" fill="#D9EFF7" id="svg_18"/>
     <path d="m412.64,351.64c0.52,-1.54 16,-12.38 30.46,-11.87s25.8,12.39 35.09,-2.58c9.29,-14.97 4.65,-22.19 24.26,-25.8c19.61,-3.62 28.9,5.16 34.58,-2.58c5.68,-7.75 5.68,-19.1 16.52,-21.68c10.84,-2.58 26.84,1.03 26.84,1.03s1.55,-36.13 23.22,-40.26c21.68,-4.13 34.07,6.2 34.07,6.2s1.03,-27.36 18.58,-41.29c17.55,-13.94 36.64,-22.2 46.97,-20.65c10.32,1.55 11.35,-15.48 34.58,-25.81c23.22,-10.32 32,-9.29 32,-9.29l0,173.94c0,0 -150.84,43.3 -177.62,54.16c-26.77,10.87 -106.77,19.13 -123.29,21.71c-16.51,2.58 -75.35,-4.64 -75.35,-4.64l-133.16,-13.42c0,0 53.68,-9.29 64.51,-11.87c10.84,-2.58 16.52,-28.39 36.65,-22.2c20.13,6.2 29.42,6.71 29.42,6.71l21.67,-9.81z" fill="#D9EFF7" id="svg_19"/>
    </g>
    <g clip-path="url(#SVGID_00000129904610251026089950000014475073480764513160_)" id="svg_20">
     <path d="m606.39,374.96l-4.37,-5.15c1.24,-0.15 2.46,-0.41 3.64,-0.8c0.09,-0.02 0.1,-0.13 0.04,-0.19c-2.26,-2.18 -4.49,-4.41 -6.67,-6.68c-0.55,-0.58 -1.1,-1.15 -1.64,-1.73c2.35,0.24 4.74,0.18 7.08,-0.2c0.1,-0.02 0.14,-0.16 0.04,-0.22c-3.04,-1.52 -5.75,-3.7 -7.89,-6.35c-0.56,-0.68 -1.07,-1.4 -1.55,-2.15c2.03,0.2 4.08,0.2 6.12,0c0.1,-0.01 0.14,-0.14 0.07,-0.21c-1.92,-1.91 -3.79,-3.88 -5.6,-5.89c-1.82,-2.01 -3.58,-4.08 -5.29,-6.19c-0.88,-1.08 -1.92,-2.2 -2.22,-3.61c-0.01,-0.04 -0.06,-0.06 -0.1,-0.04c-0.06,-0.02 -0.14,0 -0.15,0.08c-0.38,2.51 -1.07,4.98 -2.05,7.32c-0.97,2.35 -2.22,4.58 -3.73,6.63c-0.84,1.16 -1.77,2.25 -2.77,3.28c-0.09,0.1 0.03,0.22 0.14,0.2c2.27,-0.52 4.54,-1.03 6.82,-1.55c-1.25,3.08 -3.35,5.7 -5.36,8.31c-0.64,0.84 -1.29,1.67 -1.93,2.51c-0.06,0.08 -0.01,0.21 0.1,0.2c2.24,-0.24 4.48,-0.49 6.71,-0.73c-1.58,2.75 -3.27,5.43 -5.07,8.03c-0.53,0.76 -1.06,1.52 -1.61,2.26c-0.05,0.07 -0.03,0.19 0.07,0.2c2.33,0.23 4.69,-0.01 6.93,-0.7c-0.98,1.82 -2.14,3.53 -3.48,5.1c-0.06,0.07 -0.03,0.2 0.07,0.21c3.07,0.43 6.18,0.58 9.28,0.49c3.11,-0.09 6.2,-0.43 9.25,-1.03c1.71,-0.33 3.4,-0.74 5.07,-1.23c0.06,-0.02 0.1,-0.12 0.05,-0.17z" fill="#003477" id="svg_21"/>
     <path d="m138.57,382.28l-2.85,-8.92c1.66,0.48 3.36,0.79 5.09,0.93c0.12,0.01 0.19,-0.12 0.14,-0.22c-1.72,-4.01 -3.38,-8.04 -4.96,-12.11c-0.4,-1.02 -0.79,-2.06 -1.18,-3.09c2.89,1.57 5.97,2.76 9.16,3.52c0.14,0.03 0.27,-0.13 0.17,-0.25c-3.08,-3.57 -5.38,-7.8 -6.7,-12.33c-0.35,-1.17 -0.62,-2.37 -0.83,-3.58c2.49,1.34 5.11,2.43 7.82,3.26c0.14,0.04 0.25,-0.1 0.2,-0.22c-1.43,-3.48 -2.77,-6.98 -4.02,-10.53c-1.25,-3.54 -2.4,-7.12 -3.46,-10.73c-0.55,-1.86 -1.28,-3.84 -0.91,-5.8c0.01,-0.06 -0.05,-0.11 -0.11,-0.11c-0.06,-0.06 -0.17,-0.08 -0.23,0.02c-1.82,3.01 -4.03,5.8 -6.53,8.28c-2.49,2.48 -5.29,4.67 -8.31,6.49c-1.69,1.02 -3.46,1.92 -5.28,2.71c-0.18,0.07 -0.09,0.3 0.07,0.32c3.18,0.56 6.36,1.11 9.54,1.66c-3.24,3.28 -7.33,5.51 -11.29,7.77c-1.27,0.73 -2.53,1.45 -3.8,2.18c-0.12,0.07 -0.13,0.27 0.02,0.31c2.99,0.89 5.98,1.77 8.97,2.65c-3.48,2.67 -7.08,5.2 -10.78,7.57c-1.07,0.69 -2.16,1.36 -3.25,2.03c-0.1,0.06 -0.14,0.22 -0.02,0.29c2.86,1.54 6,2.49 9.24,2.79c-2.22,1.81 -4.63,3.38 -7.18,4.68c-0.11,0.05 -0.14,0.23 -0.02,0.3c3.7,2.18 7.6,4.04 11.61,5.58c4.02,1.54 8.16,2.75 12.38,3.61c2.36,0.49 4.74,0.86 7.13,1.13c0.1,0.01 0.2,-0.09 0.17,-0.19z" fill="#003477" id="svg_22"/>
     <path d="m669.14,365.89l-9.01,-10.6c2.55,-0.29 5.07,-0.84 7.51,-1.63c0.17,-0.05 0.2,-0.28 0.08,-0.39c-4.66,-4.5 -9.24,-9.09 -13.73,-13.76c-1.13,-1.18 -2.26,-2.37 -3.39,-3.56c4.85,0.5 9.76,0.36 14.57,-0.42c0.22,-0.03 0.31,-0.33 0.09,-0.44c-6.26,-3.14 -11.83,-7.62 -16.24,-13.07c-1.14,-1.41 -2.2,-2.9 -3.19,-4.43c4.19,0.41 8.41,0.41 12.6,-0.01c0.21,-0.02 0.28,-0.27 0.14,-0.42c-3.95,-3.94 -7.79,-7.99 -11.53,-12.13c-3.74,-4.14 -7.37,-8.39 -10.88,-12.73c-1.81,-2.24 -3.95,-4.53 -4.56,-7.43c-0.02,-0.1 -0.13,-0.12 -0.22,-0.09c-0.12,-0.05 -0.27,-0.01 -0.3,0.16c-0.78,5.16 -2.22,10.25 -4.22,15.08c-2,4.83 -4.58,9.42 -7.68,13.64c-1.74,2.38 -3.65,4.63 -5.7,6.74c-0.19,0.21 0.06,0.46 0.28,0.41c4.68,-1.06 9.36,-2.12 14.03,-3.18c-2.56,6.34 -6.89,11.74 -11.03,17.11c-1.32,1.72 -2.64,3.43 -3.96,5.15c-0.13,0.17 -0.02,0.45 0.21,0.42c4.6,-0.5 9.21,-1 13.81,-1.5c-3.26,5.65 -6.74,11.17 -10.45,16.54c-1.08,1.56 -2.19,3.11 -3.3,4.64c-0.1,0.14 -0.07,0.39 0.13,0.41c4.81,0.48 9.66,-0.02 14.27,-1.45c-2.01,3.75 -4.41,7.28 -7.17,10.51c-0.12,0.15 -0.05,0.4 0.15,0.43c6.32,0.88 12.73,1.2 19.11,1.01c6.39,-0.18 12.76,-0.89 19.03,-2.12c3.52,-0.69 7,-1.53 10.43,-2.53c0.14,-0.04 0.22,-0.24 0.12,-0.36z" fill="#003477" id="svg_23"/>
     <path d="m200.36,394.82l-6.69,-12.56c2.61,0.26 5.24,0.27 7.85,0.01c0.19,-0.02 0.26,-0.23 0.16,-0.38c-3.67,-5.51 -7.25,-11.09 -10.72,-16.73c-0.87,-1.43 -1.74,-2.86 -2.61,-4.3c4.74,1.56 9.67,2.49 14.65,2.76c0.23,0.01 0.38,-0.26 0.18,-0.42c-5.57,-4.5 -10.16,-10.19 -13.37,-16.59c-0.84,-1.67 -1.58,-3.38 -2.22,-5.13c4.09,1.32 8.31,2.24 12.58,2.73c0.22,0.03 0.35,-0.21 0.23,-0.38c-3.08,-4.8 -6.04,-9.68 -8.87,-14.63c-2.84,-4.96 -5.54,-9.99 -8.1,-15.09c-1.32,-2.63 -2.97,-5.39 -2.94,-8.42c0,-0.11 -0.1,-0.15 -0.19,-0.14c-0.12,-0.08 -0.28,-0.07 -0.34,0.09c-1.91,5 -4.45,9.76 -7.5,14.15c-3.06,4.39 -6.64,8.42 -10.65,11.97c-2.25,1.99 -4.65,3.82 -7.16,5.49c-0.24,0.16 -0.04,0.47 0.19,0.47c4.91,-0.04 9.81,-0.08 14.71,-0.13c-3.94,5.78 -9.44,10.23 -14.74,14.7c-1.69,1.43 -3.39,2.85 -5.08,4.28c-0.16,0.14 -0.12,0.44 0.11,0.47c4.71,0.5 9.42,1 14.13,1.5c-4.48,4.94 -9.16,9.7 -14.04,14.25c-1.42,1.33 -2.86,2.63 -4.31,3.93c-0.13,0.11 -0.15,0.37 0.05,0.44c4.69,1.51 9.65,2.08 14.57,1.65c-2.83,3.31 -5.99,6.31 -9.45,8.95c-0.16,0.11 -0.14,0.38 0.05,0.45c6.12,2.26 12.46,3.97 18.88,5.18c6.42,1.2 12.94,1.88 19.48,2.02c3.65,0.08 7.32,-0.01 10.97,-0.26c0.14,-0.01 0.26,-0.2 0.19,-0.33z" fill="#003477" id="svg_24"/>
     <path d="m564.3,401.87l-8.76,-11.21c2.62,-0.2 5.21,-0.65 7.74,-1.36c0.18,-0.05 0.21,-0.27 0.09,-0.39c-4.57,-4.8 -9.06,-9.67 -13.45,-14.63c-1.11,-1.26 -2.21,-2.52 -3.31,-3.79c4.94,0.72 9.95,0.79 14.9,0.19c0.22,-0.03 0.33,-0.33 0.11,-0.45c-6.27,-3.47 -11.77,-8.28 -16.05,-14.03c-1.11,-1.49 -2.13,-3.05 -3.07,-4.66c4.26,0.59 8.57,0.77 12.87,0.51c0.22,-0.01 0.3,-0.26 0.16,-0.42c-3.87,-4.19 -7.62,-8.48 -11.27,-12.87c-3.65,-4.39 -7.18,-8.89 -10.59,-13.47c-1.75,-2.36 -3.85,-4.79 -4.35,-7.78c-0.02,-0.1 -0.12,-0.13 -0.21,-0.1c-0.13,-0.06 -0.29,-0.02 -0.32,0.15c-1.01,5.25 -2.69,10.38 -4.94,15.23c-2.25,4.86 -5.08,9.44 -8.42,13.63c-1.88,2.35 -3.92,4.57 -6.1,6.64c-0.21,0.2 0.04,0.48 0.27,0.43c4.82,-0.88 9.64,-1.77 14.47,-2.66c-2.89,6.37 -7.54,11.7 -11.99,17.02c-1.42,1.7 -2.84,3.4 -4.26,5.1c-0.14,0.16 -0.04,0.45 0.2,0.44c4.72,-0.32 9.44,-0.64 14.17,-0.96c-3.56,5.64 -7.35,11.13 -11.37,16.46c-1.17,1.55 -2.36,3.09 -3.57,4.61c-0.1,0.13 -0.08,0.39 0.13,0.42c4.89,0.69 9.87,0.39 14.63,-0.88c-2.21,3.74 -4.8,7.25 -7.76,10.44c-0.13,0.14 -0.07,0.4 0.13,0.44c6.43,1.16 12.96,1.76 19.49,1.83c6.54,0.08 13.08,-0.38 19.54,-1.37c3.62,-0.56 7.21,-1.28 10.76,-2.16c0.14,-0.03 0.23,-0.23 0.13,-0.35z" fill="#003477" id="svg_25"/>
     <path d="m-14.45,355c0,0 64.62,-9.72 132.38,11.81c67.77,21.53 193.51,52.05 296.5,49.28s307.99,-93.26 349.1,-99.5l0,188.86l-777.98,0l0,-150.45z" fill="#003477" id="svg_26"/>
    </g>
    <path clip-path="url(#SVGID_00000129904610251026089950000014475073480764513160_)" d="m-40.77,337.45c2.32,-0.77 107.61,18.58 147.09,32.52c39.49,13.93 143.23,47.22 282.58,44.9c139.36,-2.32 307.36,-53.42 327.49,-62.71c20.13,-9.29 49.55,-17.8 49.55,-17.8l0,174.19l-794.33,0l-12.38,-171.1z" fill="#BEE2F0" id="svg_27"/>
    <g clip-path="url(#SVGID_00000129904610251026089950000014475073480764513160_)" id="svg_28">
     <rect fill="#053738" height="48.52" id="svg_29" transform="matrix(0.9894 0.1453 -0.1453 0.9894 53.5502 2.0639)" width="29.94" x="-2.32" y="343.39"/>
     <g id="svg_30">
      <path d="m89.65,285.45c0,2.07 31.64,76.91 31.64,76.91l-28.29,-9.3c0,0 -6.23,18.59 -9.59,16.52c-3.35,-2.06 -33.08,-16 -33.08,-16l-24.93,14.97l-19.65,-16l-23.97,11.87l-19.66,-18.06c0,0 -29.24,14.45 -30.2,10.83c-0.96,-3.61 -3.36,-19.09 -3.36,-19.09l-23.01,1.03l60.41,-60.39l123.69,6.71z" fill="#005D51" id="svg_31"/>
      <path d="m101.86,315.99c-5.6,-13.49 -10.56,-25.62 -11.87,-29.38c-0.06,0 -0.13,0 -0.18,0c-6.5,0.24 -39.88,-3.1 -44.39,-3.56l-79.46,-4.31l-47.49,47.48l0.24,4.52l65.29,17.03c0,0 20.39,-14.19 21.9,-15.11c1.52,-0.93 15.52,0.4 15.52,0.4c1.03,0.26 5.68,-12.13 8.77,-14.45c3.1,-2.32 10.33,-5.68 14.46,-4.9c4.12,0.77 14.71,14.45 14.71,14.45l1.13,-6.81l-0.1,-7.64c0,0 13.42,-7.23 15.74,-7.23c1.77,0 18.06,6.44 25.73,9.51z" fill="#053738" id="svg_32"/>
      <path d="m124.52,364.29c-0.78,3.87 -1.55,9.68 -3.87,8.13c-2.33,-1.55 -18.2,-16.26 -22.46,-13.16c-4.25,3.09 -1.16,11.61 -9.29,14.32c-8.13,2.71 -32.9,-16.26 -38.32,-14.32c-5.42,1.93 -20.52,17.42 -25.55,16.64c-5.03,-0.77 -19.35,-18.58 -20.9,-18.19c-1.55,0.39 -20.52,12 -22.07,12c-1.54,0 -17.41,-20.9 -21.29,-19.36c-3.87,1.55 -26.32,15.88 -28.64,13.94s-1.94,-23.61 -6.19,-23.23c-4.26,0.39 -15.88,-0.77 -18.2,1.55c-2.32,2.33 -3.48,7.74 -5.03,4.65c-1.55,-3.1 -2.32,-7.36 -1.55,-9.29c0.78,-1.94 26.11,-20.56 26.11,-20.56s12.3,0.04 17.1,3.91c4.79,3.87 4.96,12.21 12.42,11.72c7.47,-0.49 14.05,-0.68 19.86,0c5.8,0.67 26.32,-2.04 28.64,-0.88s9.29,15.87 14.32,13.94c5.04,-1.94 12,-11.62 12,-11.62l8.91,-3.48l5.42,-8.9c0,0 6.96,11.61 17.03,18.58c10.06,6.97 20.9,4.64 24.77,2.32c3.87,-2.32 13.16,-9.68 14.71,-7.74c1.55,1.93 6.51,-2.22 6.51,-2.22s16.33,27.38 15.56,31.25z" fill="#FFFFFF" id="svg_33"/>
      <path d="m45.94,322.1c0,0 -0.78,9.93 -1.04,15.87c-0.25,5.93 -0.25,17.29 -1.29,17.03c-1.03,-0.26 -7.22,-10.06 -7.22,-10.06l-4.78,-10.46l8.91,-3.48l5.42,-8.9z" fill="#D9EFF7" id="svg_34"/>
      <path d="m5.9,332.66c-0.23,-0.24 -0.43,-0.41 -0.61,-0.5c-2.32,-1.16 -22.84,1.55 -28.65,0.88c-5.8,-0.68 -12.38,-0.49 -19.85,0s-7.63,-7.85 -12.42,-11.72c-4.8,-3.87 -17.1,-3.91 -17.1,-3.91s-25.33,18.62 -26.11,20.56c-0.77,1.93 0,6.19 1.55,9.29c1.55,3.09 2.71,-2.32 5.03,-4.65c2.32,-2.32 13.94,-1.16 18.2,-1.55c4.25,-0.38 3.87,21.3 6.19,23.23c2.32,1.94 24.77,-12.39 28.64,-13.93c3.87,-1.55 19.74,19.35 21.29,19.35c1.94,-3.35 12.78,-16 12.78,-16s7.3,-14.36 11.06,-21.05z" fill="#D9EFF7" id="svg_35"/>
      <path d="m23.52,326.73c-51.93,0 -102.52,-4.96 -103.31,-5.04c-0.28,-0.03 -0.48,-0.27 -0.45,-0.55c0.03,-0.27 0.27,-0.47 0.55,-0.44c1.24,0.12 124.73,12.22 183.83,-1.54c0.27,-0.06 0.54,0.1 0.6,0.37c0.07,0.27 -0.1,0.54 -0.37,0.6c-21.46,5 -51.38,6.6 -80.85,6.6z" fill="#300505" id="svg_36"/>
      <path d="m-68.19,322.81c0,1.42 -1.16,2.58 -2.58,2.58c-1.43,0 -2.59,-1.16 -2.59,-2.58c0,-1.43 1.16,-2.59 2.59,-2.59c1.42,0.01 2.58,1.16 2.58,2.59z" fill="#DE3331" id="svg_37"/>
      <path d="m49.48,326.03c0,1.43 -1.15,2.58 -2.58,2.58c-1.42,0 -2.58,-1.15 -2.58,-2.58c0,-1.42 1.16,-2.58 2.58,-2.58c1.43,0 2.58,1.16 2.58,2.58z" fill="#F5CC62" id="svg_38"/>
      <path d="m-27.1,324.81c0,1.42 -1.15,2.58 -2.58,2.58c-1.42,0 -2.58,-1.16 -2.58,-2.58c0,-1.43 1.16,-2.59 2.58,-2.59c1.43,0.01 2.58,1.16 2.58,2.59z" fill="#F5CC62" id="svg_39"/>
      <path d="m8.13,326.23c0,1.42 -1.16,2.58 -2.58,2.58s-2.58,-1.16 -2.58,-2.58c0,-1.43 1.15,-2.59 2.58,-2.59s2.58,1.16 2.58,2.59z" fill="#DE3331" id="svg_40"/>
      <path d="m82.45,323c0,1.43 -1.15,2.58 -2.58,2.58c-1.42,0 -2.58,-1.15 -2.58,-2.58s1.15,-2.58 2.58,-2.58c1.43,0 2.58,1.15 2.58,2.58z" fill="#DE3331" id="svg_41"/>
     </g>
     <g id="svg_42">
      <path d="m83.61,232.29l31.49,75.35l-42.33,-13.93l-13.41,19.1l-21.17,-14.46l-34.06,17.55c0,0 -10.84,-23.74 -18.58,-21.16c-7.74,2.58 -32,9.81 -32,9.81l-11.36,-21.16l-21.67,3.09l69.67,-67.61l93.42,13.42z" fill="#005D51" id="svg_43"/>
      <path d="m83.36,248.42c1.96,0.39 4.98,0.98 7.62,1.51l-7.37,-17.64l-21.74,-3.12c-4.17,-0.29 -8.55,-0.83 -13.24,-1.9l-58.44,-8.4l-57.22,55.53c0.22,0.47 0.45,0.93 0.71,1.37c4.13,7.23 55.74,16.52 55.74,16.52l28.39,-8c0,0 3.09,-15.74 4.64,-18.32c1.55,-2.58 8.01,-13.52 8.01,-13.52s-0.01,-5.84 1.02,-7.64c1.04,-1.81 4.65,2.58 8.78,2.06c4.13,-0.52 8.77,-2.58 10.32,-2.58c1.55,0 4.65,4.9 6.2,7.48c1.54,2.58 8.51,2.84 8.51,2.84s4.65,-7.74 6.71,-9.03c2.06,-1.29 7.48,2.07 11.36,2.84z" fill="#053738" id="svg_44"/>
      <path d="m23.48,271.84c0,0 3.88,-5.23 6.59,-11.42c2.7,-6.19 7.54,-17.81 7.54,-17.81l4.65,-0.96c0,0 -4.45,12.19 -6.78,16.25c-2.32,4.07 -12,13.94 -12,13.94z" fill="#053738" id="svg_45"/>
      <path d="m114.46,317.81c0.08,-0.45 0.96,-5.84 -3.49,-7.33c-4.65,-1.54 -36.39,-16.25 -37.94,-12.77c-1.55,3.48 -10.45,15.48 -11.22,17.81c-0.57,1.69 -0.31,5.22 -1.32,5.83c-0.38,0.23 -0.93,0.05 -1.78,-0.8c-3.1,-3.1 -5.03,-6.2 -8.9,-8.9c-3.87,-2.71 -12.78,-10.07 -12.78,-10.07s-28.26,14.32 -30.58,17.03c-1.79,2.09 -3.36,6.49 -4.86,5.9c-0.45,-0.18 -0.89,-0.79 -1.33,-2.03c-1.94,-5.42 -9.68,-25.54 -15.1,-24.38c-5.42,1.16 -27.1,8.9 -30.19,10.45c-3.1,1.55 -4.65,10.84 -7.36,1.93c-2.71,-8.9 -2.71,-22.45 -8.9,-21.67c-6.19,0.77 -17.03,1.93 -19.36,3.09c-2.32,1.16 -5.41,-1.55 -4.64,-4.64c0.77,-3.1 31.74,-26.32 31.74,-26.32s1.16,4.64 8.52,7.35c7.35,2.71 1.55,10.06 13.55,10.84c12,0.77 20.9,-2.32 29.8,-3.1c8.91,-0.77 11.62,2.32 16.65,5.81c1.04,0.72 2.29,1.43 3.65,2.04c5.2,2.36 12.1,3.42 16.09,-0.88c4.87,-5.25 9.02,-15.22 9.28,-15.84c-0.07,0.82 -1.32,15.83 6.59,15.45c8.13,-0.38 14.32,-1.55 17.42,-3.48c3.1,-1.94 9.29,-5.03 13.55,-0.78c4.26,4.26 12.77,6.97 15.48,5.04c2.71,-1.94 5.81,-5.42 5.81,-5.42s15.1,26.71 14.71,30.19c-0.38,3.36 -2.9,9.22 -3.09,9.65z" fill="#FFFFFF" id="svg_46"/>
      <path d="m18.62,283.88c-4.81,8.12 -11.9,20.14 -12.94,22.99c-1.14,3.14 -3.12,12.77 -4.09,17.64c-0.45,-0.18 -0.89,-0.79 -1.33,-2.03c-1.94,-5.42 -9.68,-25.54 -15.1,-24.38c-5.42,1.16 -27.1,8.9 -30.19,10.45c-3.1,1.55 -4.65,10.84 -7.36,1.93c-2.71,-8.9 -2.71,-22.45 -8.9,-21.67c-6.19,0.77 -17.03,1.93 -19.36,3.09c-2.32,1.16 -5.41,-1.55 -4.64,-4.64c0.77,-3.1 31.74,-26.32 31.74,-26.32s1.16,4.64 8.52,7.35c7.35,2.71 1.55,10.06 13.55,10.84c12,0.77 20.9,-2.32 29.8,-3.1c8.91,-0.77 11.62,2.32 16.65,5.81c1.04,0.72 2.29,1.43 3.65,2.04z" fill="#D9EFF7" id="svg_47"/>
      <polygon fill="#D9EFF7" id="svg_48" points="13.936,305.71 21.935,289.968 20.129,302.871     "/>
      <path d="m60.49,321.35c-0.38,0.23 -0.93,0.05 -1.78,-0.8c-3.1,-3.1 -5.03,-6.2 -8.9,-8.9c-3.87,-2.71 -12.78,-10.07 -12.78,-10.07l9.42,-6.19c0,0 3.36,-0.78 7.23,6.96c2.87,5.74 5.59,14.73 6.81,19z" fill="#D9EFF7" id="svg_49"/>
      <path d="m108.65,287.37c-0.01,0 -0.02,0 -0.03,0c-103.48,-5.37 -147.72,-39.5 -148.15,-39.85c-0.22,-0.17 -0.26,-0.48 -0.09,-0.7c0.17,-0.22 0.49,-0.25 0.71,-0.08c0.43,0.34 44.46,34.29 147.58,39.63c0.28,0.02 0.49,0.25 0.48,0.53c-0.02,0.26 -0.24,0.47 -0.5,0.47z" fill="#300505" id="svg_50"/>
      <path d="m-0.84,266.03c0,1.43 -1.15,2.58 -2.58,2.58c-1.42,0 -2.58,-1.15 -2.58,-2.58c0,-1.42 1.15,-2.58 2.58,-2.58c1.43,0 2.58,1.16 2.58,2.58z" fill="#DE3331" id="svg_51"/>
      <path d="m59.55,281.9c0,1.43 -1.16,2.58 -2.58,2.58c-1.43,0 -2.58,-1.15 -2.58,-2.58c0,-1.42 1.15,-2.58 2.58,-2.58c1.42,0 2.58,1.16 2.58,2.58z" fill="#DE3331" id="svg_52"/>
      <circle cx="-28" cy="255" fill="#F5CC62" id="svg_53" r="2.58"/>
      <path d="m26.45,275.13c0,1.42 -1.15,2.58 -2.58,2.58c-1.42,0 -2.58,-1.15 -2.58,-2.58c0,-1.43 1.16,-2.58 2.58,-2.58c1.43,0 2.58,1.15 2.58,2.58z" fill="#F5CC62" id="svg_54"/>
      <path d="m90.71,286.36c0,1.42 -1.16,2.58 -2.58,2.58c-1.43,0 -2.58,-1.16 -2.58,-2.58c0,-1.43 1.15,-2.59 2.58,-2.59c1.42,0 2.58,1.16 2.58,2.59z" fill="#F5CC62" id="svg_55"/>
     </g>
     <g id="svg_56">
      <path d="m98.58,245.56l-21.38,-7.14l-11.28,9.84l-12.84,-13.48l-21.2,11.98l-9.16,-14.87l-36.17,11.85l2.37,-18.5l-26.46,2.46c0,0 12.24,-16.35 25.16,-32.28c5.44,-6.7 11,-13.33 15.82,-18.62c16.16,-17.74 78.73,-50.23 79.71,-50.73l0.01,-0.01c0,0 -5.1,33.87 -4.19,48.38c0.92,14.5 19.61,71.12 19.61,71.12z" fill="#005D51" id="svg_57"/>
      <path d="m101.68,247c-1.16,2.71 -4.26,10.45 -5.81,8.52c-1.55,-1.94 -0.77,-7.75 -4.64,-8.91c-3.88,-1.16 -10.84,-6.19 -13.94,-3.87c-3.1,2.32 -7.74,10.07 -10.45,11.23c-2.71,1.16 -6.19,-4.26 -8.13,-7.74c-1.94,-3.49 -4.65,-11.23 -9.29,-6.97c-4.65,4.26 -17.03,14.32 -18.58,13.55c-0.1,-0.05 -0.23,-0.18 -0.38,-0.36c-2.04,-2.54 -7.93,-16.68 -10.46,-16.68c-2.71,0 -29.81,10.46 -33.29,12.78c-0.99,0.66 -1.86,1.61 -2.63,2.54c-0.01,0 -0.01,0.01 -0.02,0.02c-0.08,0.1 -0.16,0.2 -0.23,0.29c-1.79,2.18 -3.04,4.06 -4.09,1.41c-1.55,-3.87 7.36,-24.78 4.65,-25.16c-2.24,-0.32 -13.98,2.26 -19.53,4.04c-1.17,0.38 -2.07,0.72 -2.54,0.99c-2.71,1.55 -7.74,4.64 -7.74,0.77c0,-3.87 13.16,-22.06 22.84,-30.19c1.26,-1.06 17.03,-17.03 18.58,-17.81c1.55,-0.77 3.87,5.03 6.97,8.9c3.09,3.88 12.77,7.36 22.84,4.26c4.47,-1.37 9.02,-1.14 13.13,-0.36c5.15,0.98 9.61,2.82 12.41,3.46c5.04,1.16 13.17,-14.32 13.17,-14.32s6.58,11.22 8.51,13.55c1.94,2.32 10.45,-4.65 10.45,-4.65s19.36,48 18.2,50.71z" fill="#FFFFFF" id="svg_58"/>
      <path d="m38.19,201.97c0.12,-1.07 0.38,-2.33 0.75,-3.72c-4.11,-0.78 -8.66,-1.01 -13.13,0.36c-10.07,3.1 -19.75,-0.38 -22.84,-4.26c-3.1,-3.87 -5.42,-9.67 -6.97,-8.9c-1.55,0.78 -17.32,16.75 -18.58,17.81c-9.68,8.13 -22.84,26.32 -22.84,30.19c0,3.87 5.03,0.78 7.74,-0.77c0.47,-0.27 1.37,-0.61 2.54,-0.99l12.17,-9.98l7.36,5.94c2.71,0.38 -6.2,21.29 -4.65,25.16c1.05,2.65 2.3,0.77 4.09,-1.41c0.07,-0.09 0.15,-0.19 0.23,-0.29c0.01,-0.01 0.01,-0.02 0.02,-0.02c2.91,-3.69 6.64,-8.22 10.37,-11.96c5.81,-5.81 19.74,-10.45 19.74,-10.45l5.81,7.09c2.53,0 8.42,14.14 10.46,16.68l3.86,-22.22c0,0 2.71,-18.2 3.87,-28.26z" fill="#D9EFF7" id="svg_59"/>
      <path d="m39.74,238.1c0.26,-1.04 4.65,-32 4.65,-32l2.84,26.32l-7.49,5.68z" fill="#D9EFF7" id="svg_60"/>
      <path d="m83.15,126.07l-0.43,0.4l-25.43,23.88c0,0 -11.87,12.91 -13.68,20.65c-1.8,7.74 -4.67,27.25 -4.67,27.25l-19.07,11.98c0,0 -21.68,-2.33 -26.84,-9.81c-1.58,-2.29 -3.62,-3.76 -5.41,-5c5.44,-6.7 11,-13.33 15.82,-18.62c16.16,-17.74 78.73,-50.23 79.71,-50.73z" fill="#053738" id="svg_61"/>
      <path d="m45.94,184.16c0,-0.77 1.03,-17.03 3.35,-20.64c2.32,-3.62 16.26,-20.39 16.26,-20.39s-13.68,21.42 -14.97,25.03c-1.29,3.61 -4.64,16 -4.64,16z" fill="#053738" id="svg_62"/>
      <path d="m-16.52,196.79c-0.27,0 -0.49,-0.22 -0.5,-0.5c0,-0.27 0.22,-0.5 0.5,-0.5c0.58,-0.01 58.18,-0.68 97.13,-14.42c0.26,-0.09 0.54,0.04 0.64,0.3c0.09,0.26 -0.05,0.55 -0.31,0.64c-39.11,13.8 -96.87,14.47 -97.45,14.48c0,0 -0.01,0 -0.01,0z" fill="#300505" id="svg_63"/>
      <path d="m73.68,185.32c0,1.43 -1.16,2.58 -2.58,2.58c-1.43,0 -2.58,-1.15 -2.58,-2.58c0,-1.42 1.15,-2.58 2.58,-2.58c1.42,0 2.58,1.16 2.58,2.58z" fill="#F5CC62" id="svg_64"/>
      <path d="m51.81,190.55c0,1.42 -1.16,2.58 -2.59,2.58c-1.42,0 -2.58,-1.16 -2.58,-2.58c0,-1.43 1.16,-2.58 2.58,-2.58c1.43,0 2.59,1.15 2.59,2.58z" fill="#DE3331" id="svg_65"/>
      <path d="m4.97,196.16c0,1.43 -1.16,2.58 -2.58,2.58c-1.43,0 -2.58,-1.15 -2.58,-2.58c0,-1.42 1.15,-2.58 2.58,-2.58c1.42,0 2.58,1.16 2.58,2.58z" fill="#DE3331" id="svg_66"/>
      <path d="m29.55,194.03c0,1.43 -1.16,2.58 -2.58,2.58c-1.43,0 -2.58,-1.15 -2.58,-2.58c0,-1.42 1.15,-2.58 2.58,-2.58c1.42,0 2.58,1.16 2.58,2.58z" fill="#F5CC62" id="svg_67"/>
     </g>
     <g id="svg_68">
      <polygon fill="#F5CC62" id="svg_69" points="97.25,124.15 93.95,125.25 89.43,126.77 88.43,130.26 87.16,134.69 82.25,128.07       74.02,128.35 78.8,121.64 75.99,113.9 83.85,116.37 84.79,115.63 88.79,112.51 90.34,111.3 90.42,119.54     "/>
      <path d="m88.43,130.26l-1.27,4.43l-4.91,-6.62l-8.23,0.28l4.78,-6.71l-2.81,-7.74l7.86,2.47l0.94,-0.74c0.19,5.71 2.07,11.09 3.64,14.63z" fill="#E0982A" id="svg_70"/>
      <path d="m87.42,124.68c0,0.92 -0.75,1.67 -1.68,1.67s-1.68,-0.75 -1.68,-1.67s0.75,-1.68 1.68,-1.68s1.68,0.75 1.68,1.68z" fill="#F5CC62" id="svg_71"/>
      <path d="m88.19,119.39c0,0.35 -0.29,0.64 -0.64,0.64s-0.65,-0.29 -0.65,-0.64s0.29,-0.65 0.65,-0.65s0.64,0.29 0.64,0.65z" fill="#E0982A" id="svg_72"/>
      <path d="m83.68,120.71c0,0.44 -0.36,0.81 -0.81,0.81c-0.44,0 -0.81,-0.37 -0.81,-0.81c0,-0.44 0.37,-0.81 0.81,-0.81c0.45,0 0.81,0.36 0.81,0.81z" fill="#F5CC62" id="svg_73"/>
      <polygon fill="#FFFFFF" id="svg_74" points="93.95,125.25 95.61,123.97 89.81,120.23 89.61,112.35 88.79,112.51 90.34,111.3       90.42,119.54 97.25,124.15     "/>
      <path d="m91.61,123.19c0,0.22 -0.17,0.39 -0.38,0.39s-0.39,-0.17 -0.39,-0.39c0,-0.21 0.17,-0.38 0.39,-0.38s0.38,0.17 0.38,0.38z" fill="#FFFFFF" id="svg_75"/>
     </g>
    </g>
    <g clip-path="url(#SVGID_00000129904610251026089950000014475073480764513160_)" id="svg_76">
     <rect fill="#053738" height="48.52" id="svg_77" transform="matrix(-0.9894 0.1453 -0.1453 -0.9894 1521.1694 624.1935)" width="29.93" x="722.82" y="343.39"/>
     <g id="svg_78">
      <path d="m660.79,285.45c0,2.07 -31.64,76.91 -31.64,76.91l28.28,-9.3c0,0 6.23,18.59 9.59,16.52c3.36,-2.06 33.08,-16 33.08,-16l24.93,14.97l19.66,-16l23.97,11.87l19.65,-18.06c0,0 29.25,14.45 30.21,10.83c0.96,-3.61 3.35,-19.09 3.35,-19.09l23.02,1.03l-60.41,-60.39l-123.69,6.71z" fill="#005D51" id="svg_79"/>
      <path d="m648.58,315.99c5.6,-13.49 10.56,-25.62 11.87,-29.38c0.06,0 0.12,0 0.18,0c6.49,0.24 39.88,-3.1 44.39,-3.56l79.46,-4.31l47.49,47.48l-0.24,4.52l-65.29,17.03c0,0 -20.39,-14.19 -21.91,-15.11c-1.51,-0.93 -15.51,0.4 -15.51,0.4c-1.03,0.26 -5.68,-12.13 -8.78,-14.45c-3.09,-2.32 -10.32,-5.68 -14.45,-4.9c-4.13,0.77 -14.71,14.45 -14.71,14.45l-1.13,-6.81l0.1,-7.64c0,0 -13.42,-7.23 -15.74,-7.23c-1.77,0 -18.07,6.44 -25.73,9.51z" fill="#053738" id="svg_80"/>
      <path d="m625.92,364.29c0.78,3.87 1.55,9.68 3.87,8.13c2.33,-1.55 18.2,-16.26 22.46,-13.16c4.25,3.09 1.16,11.61 9.29,14.32c8.13,2.71 32.9,-16.26 38.32,-14.32c5.42,1.93 20.52,17.42 25.55,16.64c5.03,-0.77 19.35,-18.58 20.9,-18.19c1.55,0.39 20.52,12 22.07,12c1.54,0 17.41,-20.9 21.29,-19.36c3.87,1.55 26.32,15.88 28.64,13.94c2.32,-1.94 1.94,-23.61 6.19,-23.23c4.26,0.39 15.88,-0.77 18.2,1.55c2.32,2.33 3.48,7.74 5.03,4.65c1.55,-3.1 2.32,-7.36 1.55,-9.29c-0.78,-1.94 -26.11,-20.56 -26.11,-20.56s-12.3,0.04 -17.1,3.91c-4.79,3.87 -4.96,12.21 -12.42,11.72c-7.47,-0.49 -14.05,-0.68 -19.86,0c-5.8,0.67 -26.32,-2.04 -28.64,-0.88s-9.29,15.87 -14.32,13.94c-5.04,-1.94 -12,-11.62 -12,-11.62l-8.91,-3.48l-5.42,-8.9c0,0 -6.96,11.61 -17.03,18.58c-10.06,6.97 -20.9,4.64 -24.77,2.32s-13.16,-9.68 -14.71,-7.74c-1.55,1.93 -6.51,-2.22 -6.51,-2.22s-16.33,27.38 -15.56,31.25z" fill="#FFFFFF" id="svg_81"/>
      <path d="m704.5,322.1c0,0 0.78,9.93 1.04,15.87c0.25,5.93 0.25,17.29 1.29,17.03c1.03,-0.26 7.22,-10.06 7.22,-10.06l4.78,-10.46l-8.91,-3.48l-5.42,-8.9z" fill="#D9EFF7" id="svg_82"/>
      <path d="m744.53,332.66c0.23,-0.24 0.44,-0.41 0.62,-0.5c2.32,-1.16 22.83,1.55 28.64,0.88c5.81,-0.68 12.39,-0.49 19.85,0c7.47,0.48 7.63,-7.85 12.43,-11.72c4.79,-3.87 17.1,-3.91 17.1,-3.91s25.33,18.62 26.1,20.56c0.78,1.93 0,6.19 -1.54,9.29c-1.55,3.09 -2.71,-2.32 -5.04,-4.65c-2.32,-2.32 -13.93,-1.16 -18.19,-1.55c-4.26,-0.38 -3.87,21.3 -6.19,23.23c-2.32,1.94 -24.78,-12.39 -28.65,-13.93c-3.87,-1.55 -19.74,19.35 -21.29,19.35c-1.93,-3.35 -12.77,-16 -12.77,-16s-7.3,-14.36 -11.07,-21.05z" fill="#D9EFF7" id="svg_83"/>
      <path d="m726.92,326.73c51.92,0 102.51,-4.96 103.31,-5.04c0.27,-0.03 0.47,-0.27 0.45,-0.55c-0.03,-0.27 -0.27,-0.47 -0.55,-0.44c-1.24,0.12 -124.73,12.22 -183.84,-1.54c-0.27,-0.06 -0.54,0.1 -0.6,0.37c-0.06,0.27 0.11,0.54 0.38,0.6c21.46,5 51.37,6.6 80.85,6.6z" fill="#300505" id="svg_84"/>
      <path d="m818.63,322.81c0,1.42 1.15,2.58 2.58,2.58c1.43,0 2.58,-1.16 2.58,-2.58c0,-1.43 -1.15,-2.59 -2.58,-2.59c-1.43,0.01 -2.58,1.16 -2.58,2.59z" fill="#DE3331" id="svg_85"/>
      <path d="m700.95,326.03c0,1.43 1.16,2.58 2.58,2.58s2.58,-1.15 2.58,-2.58c0,-1.42 -1.15,-2.58 -2.58,-2.58s-2.58,1.16 -2.58,2.58z" fill="#F5CC62" id="svg_86"/>
      <path d="m777.53,324.81c0,1.42 1.16,2.58 2.58,2.58c1.43,0 2.59,-1.16 2.59,-2.58c0,-1.43 -1.16,-2.59 -2.59,-2.59c-1.42,0.01 -2.58,1.16 -2.58,2.59z" fill="#F5CC62" id="svg_87"/>
      <path d="m742.31,326.23c0,1.42 1.15,2.58 2.58,2.58c1.42,0 2.58,-1.16 2.58,-2.58c0,-1.43 -1.16,-2.59 -2.58,-2.59c-1.43,0 -2.58,1.16 -2.58,2.59z" fill="#DE3331" id="svg_88"/>
      <path d="m667.99,323c0,1.43 1.15,2.58 2.58,2.58c1.42,0 2.58,-1.15 2.58,-2.58s-1.16,-2.58 -2.58,-2.58c-1.43,0 -2.58,1.15 -2.58,2.58z" fill="#DE3331" id="svg_89"/>
     </g>
     <g id="svg_90">
      <path d="m666.82,232.29l-31.48,75.35l42.32,-13.93l13.42,19.1l21.16,-14.46l34.07,17.55c0,0 10.84,-23.74 18.58,-21.16c7.74,2.58 32,9.81 32,9.81l11.35,-21.16l21.68,3.09l-69.68,-67.61l-93.42,13.42z" fill="#005D51" id="svg_91"/>
      <path d="m667.08,248.42c-1.96,0.39 -4.98,0.98 -7.62,1.51l7.36,-17.64l21.75,-3.12c4.17,-0.29 8.55,-0.83 13.24,-1.9l58.43,-8.4l57.23,55.53c-0.22,0.47 -0.46,0.93 -0.71,1.37c-4.13,7.23 -55.74,16.52 -55.74,16.52l-28.39,-8c0,0 -3.1,-15.74 -4.65,-18.32c-1.54,-2.58 -8,-13.52 -8,-13.52s0,-5.84 -1.03,-7.64c-1.03,-1.81 -4.64,2.58 -8.77,2.06c-4.13,-0.52 -8.78,-2.58 -10.32,-2.58s-4.65,4.9 -6.2,7.48c-1.55,2.58 -8.51,2.84 -8.51,2.84s-4.65,-7.74 -6.71,-9.03c-2.07,-1.29 -7.49,2.07 -11.36,2.84z" fill="#053738" id="svg_92"/>
      <path d="m726.95,271.84c0,0 -3.87,-5.23 -6.58,-11.42c-2.71,-6.19 -7.55,-17.81 -7.55,-17.81l-4.64,-0.96c0,0 4.45,12.19 6.77,16.25c2.32,4.07 12,13.94 12,13.94z" fill="#053738" id="svg_93"/>
      <path d="m635.98,317.81c-0.08,-0.45 -0.96,-5.84 3.49,-7.33c4.65,-1.54 36.39,-16.25 37.94,-12.77c1.55,3.48 10.45,15.48 11.22,17.81c0.57,1.69 0.31,5.22 1.32,5.83c0.38,0.23 0.93,0.05 1.78,-0.8c3.1,-3.1 5.03,-6.2 8.9,-8.9c3.87,-2.71 12.78,-10.07 12.78,-10.07s28.26,14.32 30.58,17.03c1.79,2.09 3.36,6.49 4.86,5.9c0.45,-0.18 0.89,-0.79 1.33,-2.03c1.94,-5.42 9.68,-25.54 15.1,-24.38c5.42,1.16 27.1,8.9 30.19,10.45c3.1,1.55 4.65,10.84 7.36,1.93c2.71,-8.9 2.71,-22.45 8.9,-21.67c6.19,0.77 17.03,1.93 19.36,3.09c2.32,1.16 5.41,-1.55 4.64,-4.64c-0.77,-3.1 -31.74,-26.32 -31.74,-26.32s-1.16,4.64 -8.52,7.35c-7.35,2.71 -1.55,10.06 -13.55,10.84c-12,0.77 -20.9,-2.32 -29.8,-3.1c-8.91,-0.77 -11.62,2.32 -16.65,5.81c-1.04,0.72 -2.29,1.43 -3.65,2.04c-5.2,2.36 -12.1,3.42 -16.09,-0.88c-4.87,-5.25 -9.02,-15.22 -9.28,-15.84c0.07,0.82 1.32,15.83 -6.59,15.45c-8.13,-0.38 -14.32,-1.55 -17.42,-3.48c-3.1,-1.94 -9.29,-5.03 -13.55,-0.78c-4.26,4.26 -12.77,6.97 -15.48,5.04c-2.71,-1.94 -5.81,-5.42 -5.81,-5.42s-15.1,26.71 -14.71,30.19c0.38,3.36 2.9,9.22 3.09,9.65z" fill="#FFFFFF" id="svg_94"/>
      <path d="m731.82,283.88c4.81,8.12 11.9,20.14 12.94,22.99c1.14,3.14 3.12,12.77 4.09,17.64c0.45,-0.18 0.89,-0.79 1.33,-2.03c1.94,-5.42 9.68,-25.54 15.1,-24.38c5.42,1.16 27.1,8.9 30.19,10.45c3.1,1.55 4.65,10.84 7.36,1.93c2.71,-8.9 2.71,-22.45 8.9,-21.67c6.19,0.77 17.03,1.93 19.36,3.09c2.32,1.16 5.41,-1.55 4.64,-4.64c-0.77,-3.1 -31.74,-26.32 -31.74,-26.32s-1.16,4.64 -8.52,7.35c-7.35,2.71 -1.55,10.06 -13.55,10.84c-12,0.77 -20.9,-2.32 -29.8,-3.1c-8.91,-0.77 -11.62,2.32 -16.65,5.81c-1.04,0.72 -2.29,1.43 -3.65,2.04z" fill="#D9EFF7" id="svg_95"/>
      <polygon fill="#D9EFF7" id="svg_96" points="736.501,305.71 728.501,289.968 730.307,302.871     "/>
      <path d="m689.95,321.35c0.38,0.23 0.93,0.05 1.78,-0.8c3.1,-3.1 5.03,-6.2 8.9,-8.9c3.87,-2.71 12.78,-10.07 12.78,-10.07l-9.42,-6.19c0,0 -3.36,-0.78 -7.23,6.96c-2.87,5.74 -5.59,14.73 -6.81,19z" fill="#D9EFF7" id="svg_97"/>
      <path d="m641.79,287.37c0.01,0 0.02,0 0.03,0c103.48,-5.37 147.72,-39.5 148.15,-39.85c0.22,-0.17 0.26,-0.48 0.08,-0.7c-0.17,-0.22 -0.48,-0.25 -0.7,-0.08c-0.43,0.34 -44.46,34.29 -147.58,39.63c-0.28,0.02 -0.49,0.25 -0.48,0.53c0.02,0.26 0.24,0.47 0.5,0.47z" fill="#300505" id="svg_98"/>
      <path d="m751.27,266.03c0,1.43 1.16,2.58 2.59,2.58c1.42,0 2.58,-1.15 2.58,-2.58c0,-1.42 -1.16,-2.58 -2.58,-2.58c-1.43,0 -2.59,1.16 -2.59,2.58z" fill="#DE3331" id="svg_99"/>
      <path d="m690.89,281.9c0,1.43 1.15,2.58 2.58,2.58c1.42,0 2.58,-1.15 2.58,-2.58c0,-1.42 -1.15,-2.58 -2.58,-2.58c-1.43,0 -2.58,1.16 -2.58,2.58z" fill="#DE3331" id="svg_100"/>
      <path d="m775.86,255c0,1.43 1.15,2.58 2.58,2.58c1.42,0 2.58,-1.15 2.58,-2.58s-1.16,-2.58 -2.58,-2.58c-1.43,0 -2.58,1.15 -2.58,2.58z" fill="#F5CC62" id="svg_101"/>
      <path d="m723.99,275.13c0,1.42 1.15,2.58 2.58,2.58c1.42,0 2.58,-1.15 2.58,-2.58c0,-1.43 -1.16,-2.58 -2.58,-2.58c-1.43,0 -2.58,1.15 -2.58,2.58z" fill="#F5CC62" id="svg_102"/>
      <path d="m659.73,286.36c0,1.42 1.15,2.58 2.58,2.58c1.42,0 2.58,-1.16 2.58,-2.58c0,-1.43 -1.16,-2.59 -2.58,-2.59c-1.43,0 -2.58,1.16 -2.58,2.59z" fill="#F5CC62" id="svg_103"/>
     </g>
     <g id="svg_104">
      <path d="m651.86,245.56l21.38,-7.14l11.28,9.84l12.84,-13.48l21.2,11.98l9.16,-14.87l36.17,11.85l-2.37,-18.5l26.46,2.46c0,0 -12.24,-16.35 -25.16,-32.28c-5.44,-6.7 -11,-13.33 -15.82,-18.62c-16.16,-17.74 -78.73,-50.23 -79.71,-50.73l-0.01,-0.01c0,0 5.1,33.87 4.19,48.38c-0.92,14.5 -19.61,71.12 -19.61,71.12z" fill="#005D51" id="svg_105"/>
      <path d="m648.76,247c1.16,2.71 4.26,10.45 5.81,8.52c1.55,-1.94 0.77,-7.75 4.64,-8.91c3.88,-1.16 10.84,-6.19 13.94,-3.87c3.1,2.32 7.74,10.07 10.45,11.23c2.71,1.16 6.19,-4.26 8.13,-7.74c1.94,-3.49 4.65,-11.23 9.29,-6.97c4.65,4.26 17.03,14.32 18.58,13.55c0.1,-0.05 0.23,-0.18 0.38,-0.36c2.04,-2.54 7.93,-16.68 10.46,-16.68c2.71,0 29.81,10.46 33.29,12.78c0.99,0.66 1.86,1.61 2.63,2.54c0.01,0 0.01,0.01 0.02,0.02c0.08,0.1 0.16,0.2 0.23,0.29c1.79,2.18 3.04,4.06 4.09,1.41c1.55,-3.87 -7.36,-24.78 -4.65,-25.16c2.24,-0.32 13.98,2.26 19.53,4.04c1.17,0.38 2.07,0.72 2.54,0.99c2.71,1.55 7.74,4.64 7.74,0.77c0,-3.87 -13.16,-22.06 -22.84,-30.19c-1.26,-1.06 -17.03,-17.03 -18.58,-17.81c-1.55,-0.77 -3.87,5.03 -6.97,8.9c-3.09,3.88 -12.77,7.36 -22.84,4.26c-4.47,-1.37 -9.02,-1.14 -13.13,-0.36c-5.15,0.98 -9.61,2.82 -12.41,3.46c-5.04,1.16 -13.17,-14.32 -13.17,-14.32s-6.58,11.22 -8.51,13.55c-1.94,2.32 -10.45,-4.65 -10.45,-4.65s-19.36,48 -18.2,50.71z" fill="#FFFFFF" id="svg_106"/>
      <path d="m712.25,201.97c-0.12,-1.07 -0.38,-2.33 -0.75,-3.72c4.11,-0.78 8.66,-1.01 13.13,0.36c10.07,3.1 19.75,-0.38 22.84,-4.26c3.1,-3.87 5.42,-9.67 6.97,-8.9c1.55,0.78 17.32,16.75 18.58,17.81c9.68,8.13 22.84,26.32 22.84,30.19c0,3.87 -5.03,0.78 -7.74,-0.77c-0.47,-0.27 -1.37,-0.61 -2.54,-0.99l-12.17,-9.98l-7.36,5.94c-2.71,0.38 6.2,21.29 4.65,25.16c-1.05,2.65 -2.3,0.77 -4.09,-1.41c-0.07,-0.09 -0.15,-0.19 -0.23,-0.29c-0.01,-0.01 -0.01,-0.02 -0.02,-0.02c-2.91,-3.69 -6.64,-8.22 -10.37,-11.96c-5.81,-5.81 -19.74,-10.45 -19.74,-10.45l-5.81,7.09c-2.53,0 -8.42,14.14 -10.46,16.68l-3.86,-22.22c0,0 -2.71,-18.2 -3.87,-28.26z" fill="#D9EFF7" id="svg_107"/>
      <path d="m710.69,238.1c-0.25,-1.04 -4.64,-32 -4.64,-32l-2.84,26.32l7.48,5.68z" fill="#D9EFF7" id="svg_108"/>
      <path d="m667.29,126.07l0.43,0.4l25.43,23.88c0,0 11.87,12.91 13.68,20.65c1.8,7.74 4.67,27.25 4.67,27.25l19.07,11.98c0,0 21.68,-2.33 26.84,-9.81c1.58,-2.29 3.62,-3.76 5.41,-5c-5.44,-6.7 -11,-13.33 -15.82,-18.62c-16.16,-17.74 -78.73,-50.23 -79.71,-50.73z" fill="#053738" id="svg_109"/>
      <path d="m704.5,184.16c0,-0.77 -1.03,-17.03 -3.35,-20.64c-2.33,-3.62 -16.26,-20.39 -16.26,-20.39s13.67,21.42 14.97,25.03s4.64,16 4.64,16z" fill="#053738" id="svg_110"/>
      <path d="m766.95,196.79c0.28,0 0.5,-0.22 0.5,-0.5c0,-0.27 -0.22,-0.5 -0.49,-0.5c-0.58,-0.01 -58.18,-0.68 -97.13,-14.42c-0.26,-0.09 -0.55,0.04 -0.64,0.3c-0.09,0.26 0.04,0.55 0.3,0.64c39.11,13.8 96.88,14.47 97.46,14.48c0,0 0,0 0,0z" fill="#300505" id="svg_111"/>
      <path d="m676.76,185.32c0,1.43 1.15,2.58 2.58,2.58c1.42,0 2.58,-1.15 2.58,-2.58c0,-1.42 -1.15,-2.58 -2.58,-2.58c-1.43,0 -2.58,1.16 -2.58,2.58z" fill="#F5CC62" id="svg_112"/>
      <path d="m698.63,190.55c0,1.42 1.15,2.58 2.58,2.58c1.43,0 2.58,-1.16 2.58,-2.58c0,-1.43 -1.15,-2.58 -2.58,-2.58c-1.43,0 -2.58,1.15 -2.58,2.58z" fill="#DE3331" id="svg_113"/>
      <path d="m745.47,196.16c0,1.43 1.15,2.58 2.58,2.58c1.43,0 2.58,-1.15 2.58,-2.58c0,-1.42 -1.15,-2.58 -2.58,-2.58c-1.43,0 -2.58,1.16 -2.58,2.58z" fill="#DE3331" id="svg_114"/>
      <path d="m720.89,194.03c0,1.43 1.15,2.58 2.58,2.58c1.42,0 2.58,-1.15 2.58,-2.58c0,-1.42 -1.15,-2.58 -2.58,-2.58c-1.43,0 -2.58,1.16 -2.58,2.58z" fill="#F5CC62" id="svg_115"/>
     </g>
     <g id="svg_116">
      <polygon fill="#F5CC62" id="svg_117" points="653.186,124.15 656.486,125.25 661.006,126.77 662.006,130.26 663.276,134.69       668.186,128.07 676.416,128.35 671.636,121.64 674.446,113.9 666.586,116.37 665.646,115.63 661.646,112.51 660.096,111.3       660.016,119.54     "/>
      <path d="m662.01,130.26l1.27,4.43l4.91,-6.62l8.23,0.28l-4.78,-6.71l2.81,-7.74l-7.86,2.47l-0.94,-0.74c-0.19,5.71 -2.07,11.09 -3.64,14.63z" fill="#E0982A" id="svg_118"/>
      <circle cx="664.69" cy="124.68" fill="#F5CC62" id="svg_119" r="1.68"/>
      <path d="m662.24,119.39c0,0.35 0.29,0.64 0.65,0.64s0.64,-0.29 0.64,-0.64s-0.29,-0.65 -0.64,-0.65s-0.65,0.29 -0.65,0.65z" fill="#E0982A" id="svg_120"/>
      <path d="m666.76,120.71c0,0.44 0.36,0.81 0.81,0.81c0.44,0 0.8,-0.37 0.8,-0.81c0,-0.44 -0.36,-0.81 -0.8,-0.81c-0.45,0 -0.81,0.36 -0.81,0.81z" fill="#F5CC62" id="svg_121"/>
      <polygon fill="#FFFFFF" id="svg_122" points="656.486,125.25 654.826,123.97 660.626,120.23 660.826,112.35 661.646,112.51       660.096,111.3 660.016,119.54 653.186,124.15     "/>
      <path d="m658.82,123.19c0,0.22 0.18,0.39 0.39,0.39c0.21,0 0.39,-0.17 0.39,-0.39c0,-0.21 -0.18,-0.38 -0.39,-0.38c-0.21,0 -0.39,0.17 -0.39,0.38z" fill="#FFFFFF" id="svg_123"/>
     </g>
    </g>
    <path clip-path="url(#SVGID_00000129904610251026089950000014475073480764513160_)" d="m757.86,366.81l0,147.54l-772.31,0l0,-127.98c0,0 69.68,-15.99 126.58,3.74c16.35,5.67 54.68,15.35 107.32,23.62c82.46,12.97 200.04,22.49 323.17,7.75c71.81,-8.59 145.51,-25.44 215.24,-54.67z" fill="#FFFFFF" id="svg_124"/>
   </g>
   <path d="m556.9,430.65c0,13.5 -87.74,24.44 -195.99,24.44c-108.24,0 -195.98,-10.94 -195.98,-24.44c0,-6.57 20.75,-12.53 54.52,-16.92c82.46,12.97 200.04,22.49 323.17,7.75c9.21,2.83 14.28,5.92 14.28,9.17z" fill="#D9EFF7" id="svg_125"/>
  </g>
  <rect fill="#ffffff" height="104.71" id="svg_4" width="750" x="0" y="496.24"/>
 </g>
</svg>