<?xml version="1.0"?>
<svg width="200" height="250" xmlns="http://www.w3.org/2000/svg" xmlns:svg="http://www.w3.org/2000/svg" enable-background="new 0 0 500 500" version="1.1" xml:space="preserve">
 <g class="layer">
  <title>Layer 1</title>
  <g id="OBJECTS">
   <g id="svg_2">
    <g id="svg_151">
     <g id="svg_223">
      <g id="svg_232">
       <path d="m60.59,172.91c-10.2,0 -17.23,-2.65 -20.99,-7.93c-9.04,-12.7 4.53,-35.26 5.11,-36.22c0.54,-0.88 1.68,-1.15 2.56,-0.62c0.87,0.53 1.15,1.68 0.62,2.55c-0.14,0.21 -12.9,21.44 -5.27,32.13c4.88,6.84 17.82,8.21 37.44,3.92c1,-0.21 1.99,0.42 2.2,1.42c0.22,1 -0.41,1.99 -1.41,2.22c-7.75,1.68 -14.51,2.53 -20.26,2.53z" fill="#343B54" id="svg_233"/>
       <path d="m80.75,177.57c-2.08,0 -4.81,-1.37 -6.61,-2.76c-1.3,-1 -2.9,-2.61 -3.16,-4.58c-0.43,-3.39 1.51,-9.27 5.42,-10.41c0.98,-0.28 2.02,0.28 2.3,1.27c0.28,0.98 -0.28,2.01 -1.26,2.29c-1.49,0.43 -3.07,4.07 -2.77,6.37c0.04,0.31 0.45,1.11 1.75,2.1c1.83,1.42 3.86,2.05 4.38,1.99c1.01,-0.14 1.94,0.58 2.08,1.6c0.14,1.01 -0.58,1.96 -1.6,2.08c-0.17,0.02 -0.36,0.04 -0.53,0.04z" fill="#343B54" id="svg_234"/>
      </g>
      <g id="svg_235">
       <path d="m138.07,172.91c-5.68,0 -12.37,-0.84 -20.03,-2.54c-1,-0.21 -1.63,-1.2 -1.42,-2.2c0.22,-1 1.2,-1.65 2.22,-1.42c19.28,4.26 32.05,2.93 36.91,-3.82c7.67,-10.68 -5.01,-32.02 -5.14,-32.24c-0.53,-0.87 -0.25,-2.02 0.63,-2.54c0.88,-0.53 2.02,-0.25 2.55,0.63c0.58,0.95 14.06,23.64 4.98,36.3c-3.74,5.22 -10.67,7.84 -20.7,7.84z" fill="#343B54" id="svg_236"/>
       <path d="m118.15,177.57c-0.19,0 -0.36,-0.01 -0.52,-0.04c-1.03,-0.14 -1.73,-1.06 -1.61,-2.08c0.14,-1.01 1.05,-1.73 2.08,-1.6c0.51,0.06 2.48,-0.56 4.27,-1.94c1.14,-0.89 1.71,-1.72 1.77,-2.15c0.28,-2.3 -1.26,-5.94 -2.74,-6.37c-0.98,-0.28 -1.55,-1.31 -1.25,-2.3c0.28,-0.98 1.31,-1.55 2.3,-1.25c3.87,1.13 5.79,7.01 5.36,10.4c-0.25,1.98 -1.87,3.61 -3.18,4.63c-1.77,1.35 -4.46,2.71 -6.49,2.71z" fill="#343B54" id="svg_237"/>
      </g>
     </g>
    </g>
   </g>
  </g>
 </g>

</svg>