<?xml version="1.0"?>
<svg width="200" height="250" xmlns="http://www.w3.org/2000/svg" xmlns:svg="http://www.w3.org/2000/svg" enable-background="new 0 0 500 500" version="1.1" xml:space="preserve">
 <g class="layer">
  <title>Layer 1</title>
  <g id="OBJECTS">
   <g id="svg_2">
    <g id="svg_151">
     <path d="m179.58,218.16c0,2.11 -33.25,3.83 -74.27,3.83c-41.02,0 -74.27,-1.72 -74.27,-3.83c0,-2.11 33.25,-3.82 74.27,-3.82c41.02,0 74.27,1.71 74.27,3.82z" fill="#95A4BC" id="svg_152"/>
     <g id="svg_153">
      <path d="m147.83,210.15c-6.62,0.26 -13.25,0.24 -19.87,-0.04l-0.69,6.05c6.9,0.95 14.06,0.94 21.65,-0.03l-1.09,-5.98z" fill="#353B55" id="svg_154"/>
      <path d="m189.9,191.46c-1.53,-5.94 -6,-10.48 -10.54,-14.51c-4.26,-3.77 -8.81,-7.41 -11.72,-12.3c-0.5,-0.85 -0.96,-1.86 -0.61,-2.78c0.36,-0.96 1.43,-1.4 2.39,-1.73c4.6,-1.58 9.98,-3.51 9.97,-9.38c0,-1.82 -0.59,-3.6 -1.54,-5.15c-5.45,-8.98 -14.57,-14.92 -20.6,-23.41c-0.36,-0.51 -0.73,-1.08 -0.71,-1.7c0.01,-0.84 0.69,-1.5 1.37,-1.98c2.82,-1.96 6.83,-2.71 8.29,-5.82c1.49,-3.2 -0.67,-6.86 -2.92,-9.58c-4.23,-5.14 -12.82,-11.67 -18.72,-15.88c-3.7,-2.65 -8.68,-2.64 -12.38,0.01c-5.89,4.23 -14.45,10.79 -18.67,15.94c-2.24,2.73 -4.4,6.39 -2.89,9.59c1.46,3.1 5.48,3.84 8.3,5.8c0.68,0.47 1.36,1.13 1.38,1.97c0.01,0.62 -0.35,1.19 -0.71,1.7c-6.01,8.5 -15.11,14.48 -20.54,23.46c-0.94,1.56 -1.53,3.34 -1.53,5.16c0.01,5.87 5.4,7.79 10,9.35c0.96,0.33 2.03,0.77 2.4,1.72c0.35,0.92 -0.11,1.94 -0.61,2.79c-2.89,4.9 -7.43,8.55 -11.68,12.33c-4.53,4.04 -8.99,8.6 -10.51,14.54c-0.79,3.12 -0.52,6.46 0.85,9.37c2.12,4.07 7.78,5.59 12.48,6.41c9.17,1.44 18.34,2.34 27.51,2.73c6.62,0.28 13.25,0.3 19.87,0.04c9.6,-0.39 19.19,-1.34 28.79,-2.88c5.1,-0.89 10.35,-2.07 12.47,-6.44c1.35,-2.92 1.62,-6.26 0.81,-9.37z" fill="#59784F" id="svg_155"/>
      <g id="svg_156">
       <path d="m124.96,93.72c-0.39,0 -0.76,-0.23 -0.92,-0.61l0.91,-0.43l0.92,-0.38l-0.92,0.38l0.94,-0.34c0.21,0.5 -0.03,1.09 -0.54,1.31c-0.13,0.05 -0.26,0.07 -0.39,0.07z" fill="#FFFFFF" id="svg_157"/>
       <path d="m150.1,109.53c-0.01,0 -0.03,0 -0.04,0l-0.1,0c-0.55,-0.03 -0.98,-0.49 -0.96,-1.05c0.03,-0.55 0.5,-0.97 1.04,-0.95l0.11,0c0.55,0.03 0.98,0.49 0.95,1.05c-0.02,0.53 -0.46,0.95 -1,0.95zm5.11,-0.14c-0.52,0 -0.96,-0.4 -1,-0.92c-0.05,-0.55 0.36,-1.03 0.91,-1.08l0.09,-0.01c0.54,-0.07 1.04,0.34 1.09,0.89c0.06,0.55 -0.34,1.04 -0.89,1.1l-0.12,0.01c-0.03,0.01 -0.06,0.01 -0.08,0.01zm-10.27,-0.45c-0.07,0 -0.13,-0.01 -0.19,-0.02l-0.12,-0.02c-0.54,-0.11 -0.89,-0.64 -0.78,-1.18c0.12,-0.54 0.65,-0.89 1.19,-0.78l0.08,0.02c0.54,0.1 0.9,0.62 0.8,1.17c-0.09,0.48 -0.51,0.81 -0.98,0.81zm15.5,-0.33c-0.47,0 -0.92,-0.32 -1.02,-0.79c-0.11,-0.55 0.2,-1.07 0.74,-1.18l0.11,-0.02c0.54,-0.1 1.06,0.25 1.17,0.8c0.1,0.54 -0.25,1.06 -0.8,1.17c-0.06,0.01 -0.13,0.02 -0.2,0.02zm-20.5,-1.11c-0.13,0 -0.25,-0.02 -0.37,-0.07c-0.52,-0.2 -0.81,-0.79 -0.61,-1.31c0.2,-0.51 0.73,-0.79 1.25,-0.58l0.09,0.03c0.52,0.21 0.77,0.79 0.57,1.3c-0.16,0.39 -0.54,0.63 -0.93,0.63zm-4.66,-2.32c-0.19,0 -0.37,-0.05 -0.54,-0.15c-0.47,-0.29 -0.65,-0.93 -0.36,-1.4c0.29,-0.47 0.87,-0.64 1.34,-0.35l0.1,0.06c0.47,0.3 0.6,0.92 0.3,1.38c-0.19,0.3 -0.51,0.46 -0.84,0.46zm-4.14,-3.15c-0.25,0 -0.5,-0.09 -0.69,-0.28c-0.41,-0.37 -0.47,-1.02 -0.1,-1.43c0.37,-0.41 0.97,-0.47 1.39,-0.1l0.09,0.09c0.4,0.38 0.41,1.02 0.03,1.41c-0.2,0.21 -0.46,0.31 -0.72,0.31zm-3.49,-3.86c-0.31,0 -0.62,-0.14 -0.81,-0.41c-0.33,-0.44 -0.27,-1.1 0.17,-1.44c0.44,-0.33 1.04,-0.27 1.38,0.17l0.06,0.09c0.33,0.45 0.23,1.08 -0.22,1.4c-0.17,0.13 -0.38,0.19 -0.58,0.19zm-2.64,-4.45c-0.31,0 -0.61,-0.14 -0.81,-0.41c-0.33,-0.44 -0.26,-1.1 0.18,-1.43c0.44,-0.33 1.04,-0.28 1.37,0.16l0.07,0.1c0.32,0.44 0.23,1.07 -0.22,1.39c-0.18,0.13 -0.38,0.19 -0.59,0.19z" fill="#FFFFFF" id="svg_158"/>
       <path d="m165.48,107.33c-0.44,0 -0.85,-0.27 -0.98,-0.71c-0.15,-0.52 0.12,-1.07 0.64,-1.23c0.01,0 0.06,-0.02 0.07,-0.02c0.53,-0.15 1.09,0.16 1.24,0.69c0.15,0.53 -0.16,1.08 -0.69,1.23c-0.1,0.03 -0.19,0.04 -0.28,0.04z" fill="#FFFFFF" id="svg_159"/>
      </g>
      <g id="svg_160">
       <path d="m110.83,113.43c-0.54,-0.13 -0.88,-0.68 -0.74,-1.21c0.13,-0.54 0.67,-0.87 1.2,-0.73l-0.46,1.94z" fill="#DEA75A" id="svg_161"/>
       <path d="m126.63,115.42c-0.54,0 -0.99,-0.44 -1,-0.99c0,-0.55 0.44,-1 0.99,-1.01l0.1,0c0.53,0 1.01,0.43 1.02,0.98c0.01,0.56 -0.44,1.01 -0.99,1.02l-0.1,0c-0.01,0 -0.01,0 -0.02,0zm-5.16,-0.19c-0.03,0 -0.06,0 -0.09,0l-0.1,-0.01c-0.55,-0.05 -0.96,-0.53 -0.91,-1.08c0.04,-0.55 0.53,-0.96 1.08,-0.91l0.1,0c0.55,0.05 0.96,0.53 0.91,1.08c-0.04,0.53 -0.48,0.92 -0.99,0.92zm10.42,-0.15c-0.5,0 -0.93,-0.38 -0.99,-0.89c-0.06,-0.55 0.33,-1.05 0.88,-1.11l0.11,1l-0.07,-1l0.18,0.98l0.11,1l-0.1,0.01c-0.04,0 -0.08,0.01 -0.12,0.01zm-15.65,-0.52c-0.06,0 -0.12,0 -0.17,-0.01l-0.11,-0.02c-0.54,-0.1 -0.91,-0.61 -0.81,-1.16c0.09,-0.54 0.6,-0.9 1.15,-0.81l0.1,0.01c0.55,0.1 0.91,0.61 0.82,1.16c-0.08,0.49 -0.51,0.83 -0.98,0.83zm20.93,-0.45c-0.46,0 -0.89,-0.29 -1.01,-0.75c-0.13,-0.53 0.15,-1.06 0.68,-1.2l0.11,-0.02c0.54,-0.14 1.08,0.2 1.21,0.73c0.13,0.54 -0.2,1.08 -0.74,1.21c-0.08,0.02 -0.17,0.03 -0.25,0.03zm5.01,-1.59c-0.41,0 -0.8,-0.23 -0.96,-0.62c-0.2,-0.51 0.01,-1.08 0.53,-1.28l0.1,-0.04c0.52,-0.2 1.1,0.06 1.29,0.58c0.2,0.51 -0.06,1.09 -0.58,1.29c-0.12,0.05 -0.25,0.07 -0.38,0.07zm4.7,-2.21c-0.35,0 -0.69,-0.19 -0.87,-0.52c-0.27,-0.49 -0.09,-1.1 0.39,-1.36l0.07,-0.04c0.48,-0.28 1.09,-0.12 1.37,0.36c0.27,0.48 0.11,1.09 -0.36,1.37l-0.12,0.06c-0.15,0.09 -0.31,0.13 -0.48,0.13zm4.41,-2.95c-0.35,0 -0.69,-0.19 -0.87,-0.52c-0.27,-0.49 -0.09,-1.09 0.39,-1.36l0.07,-0.04c0.48,-0.28 1.09,-0.11 1.37,0.36c0.27,0.48 0.11,1.09 -0.36,1.37l-0.12,0.06c-0.15,0.09 -0.31,0.13 -0.48,0.13zm0,0.06c-0.3,0 -0.6,-0.14 -0.8,-0.4c-0.33,-0.44 -0.24,-1.07 0.2,-1.4l0.6,0.8l-0.56,-0.83l0.65,0.77l0.6,0.8l-0.09,0.06c-0.18,0.14 -0.39,0.2 -0.6,0.2zm3.97,-3.46c-0.25,0 -0.51,-0.1 -0.7,-0.3c-0.4,-0.39 -0.4,-1.02 0,-1.41l0.07,-0.07c0.39,-0.4 1.02,-0.4 1.41,0c0.39,0.39 0.39,1.02 0,1.41l-0.07,0.07c-0.2,0.2 -0.45,0.3 -0.71,0.3zm-23.37,11.15c-0.25,0 -0.51,-0.1 -0.7,-0.29c-0.39,-0.39 -0.39,-1.02 0,-1.42l0.07,-0.07c0.39,-0.39 1.02,-0.39 1.41,0c0.4,0.39 0.4,1.02 0,1.42l-0.07,0.07c-0.19,0.19 -0.45,0.29 -0.71,0.29z" fill="#DEA75A" id="svg_162"/>
       <path d="m158.76,99.94c-0.2,0 -0.41,-0.06 -0.58,-0.19c-0.44,-0.33 -0.55,-0.94 -0.23,-1.38c0.01,-0.01 0.03,-0.03 0.03,-0.03c0.33,-0.44 0.96,-0.53 1.4,-0.2c0.44,0.33 0.54,0.94 0.21,1.38c-0.2,0.27 -0.51,0.42 -0.83,0.42z" fill="#DEA75A" id="svg_163"/>
      </g>
      <g id="svg_164">
       <path d="m98.21,148.78c-0.54,-0.09 -0.93,-0.6 -0.84,-1.14c0.09,-0.54 0.58,-0.92 1.12,-0.83l-0.28,1.97z" fill="#FFFFFF" id="svg_165"/>
       <path d="m113.19,149.75c-0.55,0 -1.05,-0.44 -1.05,-0.99c-0.01,-0.55 0.38,-1 0.93,-1.01c0.01,0 0.11,0 0.12,0c0.55,0 1,0.45 1,1c0,0.55 -0.45,1 -1,1zm-4.95,-0.08c-0.01,0 -0.02,0 -0.03,0c-0.01,0 -0.11,0 -0.12,0c-0.55,-0.03 -0.97,-0.49 -0.95,-1.05c0.02,-0.55 0.5,-0.96 1.05,-0.95l-0.05,1l0.13,-1c0.55,0.02 0.98,0.48 0.97,1.03c-0.02,0.54 -0.47,0.97 -1,0.97zm9.89,-0.12c-0.52,0 -1,-0.41 -1.04,-0.93c-0.04,-0.55 0.33,-1.02 0.87,-1.06c0.01,-0.01 0.11,-0.01 0.11,-0.01c0.56,-0.03 1.03,0.38 1.06,0.94c0.04,0.55 -0.38,1.02 -0.93,1.05c-0.02,0 -0.05,0.01 -0.07,0.01zm-14.83,-0.2c-0.03,0 -0.07,0 -0.1,-0.01c-0.55,-0.05 -1,-0.54 -0.95,-1.09c0.05,-0.55 0.49,-0.95 1.04,-0.91l0.1,0.01c0.55,0.05 0.95,0.54 0.9,1.09c-0.05,0.52 -0.48,0.91 -0.99,0.91zm19.76,-0.32c-0.5,0 -0.97,-0.36 -1.04,-0.86c-0.07,-0.54 0.26,-1.04 0.81,-1.12l0.09,-0.01c0.55,-0.07 1.06,0.31 1.13,0.86c0.07,0.54 -0.31,1.05 -0.86,1.12c-0.04,0.01 -0.09,0.01 -0.13,0.01zm4.87,-0.85c-0.47,0 -0.92,-0.32 -1.02,-0.79c-0.11,-0.54 0.18,-1.05 0.72,-1.17c0,0 0.1,-0.02 0.11,-0.03c0.55,-0.11 1.07,0.25 1.18,0.79c0.1,0.55 -0.25,1.07 -0.79,1.18c-0.07,0.01 -0.13,0.02 -0.2,0.02zm4.79,-1.23c-0.44,0 -0.86,-0.27 -0.99,-0.7c-0.16,-0.53 0.1,-1.08 0.63,-1.23l0.09,-0.03c0.53,-0.16 1.09,0.14 1.25,0.67c0.15,0.53 -0.15,1.09 -0.68,1.25c-0.1,0.03 -0.2,0.04 -0.3,0.04zm4.61,-1.59c-0.4,0 -0.78,-0.24 -0.94,-0.64c-0.2,-0.51 0.06,-1.09 0.57,-1.29l0.36,0.93l-0.28,-0.96c0.51,-0.21 1.1,0.04 1.3,0.55c0.21,0.51 -0.04,1.1 -0.55,1.3c0,0 -0.1,0.04 -0.1,0.04c-0.12,0.05 -0.24,0.07 -0.36,0.07zm4.58,-2.05c-0.38,0 -0.74,-0.19 -0.91,-0.54c-0.25,-0.49 -0.1,-1.07 0.4,-1.32l0.09,-0.04c0.49,-0.25 1.09,-0.05 1.34,0.44c0.24,0.5 0.04,1.1 -0.45,1.35c-0.15,0.07 -0.31,0.11 -0.47,0.11zm4.3,-2.43c-0.34,0 -0.67,-0.16 -0.86,-0.45c-0.29,-0.47 -0.19,-1.06 0.28,-1.36l0.08,-0.05c0.47,-0.29 1.08,-0.15 1.38,0.32s0.15,1.09 -0.32,1.38c-0.17,0.11 -0.37,0.16 -0.56,0.16zm4.06,-2.82c-0.31,0 -0.61,-0.12 -0.8,-0.37c-0.33,-0.44 -0.28,-1.03 0.15,-1.37c0.01,0 0.09,-0.07 0.09,-0.07c0.45,-0.33 1.07,-0.24 1.4,0.21c0.33,0.44 0.24,1.07 -0.21,1.4c-0.18,0.14 -0.41,0.2 -0.63,0.2zm3.78,-3.17c-0.27,0 -0.53,-0.1 -0.72,-0.31c-0.37,-0.4 -0.38,-1 0.02,-1.37c0,-0.01 0.08,-0.08 0.09,-0.09c0.41,-0.36 1.05,-0.32 1.41,0.09c0.37,0.42 0.33,1.05 -0.09,1.41c-0.19,0.18 -0.45,0.27 -0.71,0.27zm3.5,-3.5c-0.24,0 -0.48,-0.08 -0.66,-0.25c-0.4,-0.37 -0.46,-0.96 -0.1,-1.36c0.01,-0.01 0.08,-0.09 0.09,-0.1c0.38,-0.4 1.02,-0.41 1.42,-0.03c0.39,0.38 0.41,1.02 0.02,1.42c-0.2,0.21 -0.49,0.32 -0.77,0.32z" fill="#FFFFFF" id="svg_166"/>
       <path d="m160.77,127.61c-0.22,0 -0.43,-0.07 -0.61,-0.2c-0.43,-0.35 -0.52,-0.95 -0.18,-1.39l0.03,-0.04c0.34,-0.43 0.97,-0.51 1.4,-0.17c0.44,0.34 0.51,0.97 0.17,1.41c-0.2,0.25 -0.5,0.39 -0.81,0.39z" fill="#FFFFFF" id="svg_167"/>
      </g>
      <g id="svg_168">
       <path d="m103.06,173.32c-0.29,0 -0.57,-0.13 -0.77,-0.37l0.74,-0.67l0.79,-0.62l-0.79,0.62l0.81,-0.6c0.35,0.43 0.28,1.06 -0.15,1.41c-0.18,0.15 -0.4,0.23 -0.63,0.23z" fill="#FFFFFF" id="svg_169"/>
       <path d="m165.15,200.94c-0.56,0 -1.05,-0.45 -1.05,-1c0,-0.55 0.4,-1 0.95,-1l0.1,0c0.55,0 1,0.45 1,1c0,0.55 -0.45,1 -1,1zm5.02,-0.11c-0.53,0 -1.02,-0.42 -1.04,-0.96c-0.03,-0.55 0.35,-1.01 0.9,-1.03c0.01,0 0.11,-0.01 0.11,-0.01c0.58,-0.01 1.02,0.42 1.03,0.97c0.02,0.55 -0.41,1.01 -0.97,1.03c-0.01,0 -0.02,0 -0.03,0zm-10.05,-0.01c-0.02,0 -0.04,0 -0.06,0c-0.55,-0.04 -1.02,-0.51 -0.99,-1.06c0.03,-0.54 0.47,-0.96 1,-0.94c0,0 0.11,0 0.11,0c0.55,0.03 0.97,0.51 0.94,1.06c-0.03,0.53 -0.47,0.94 -1,0.94zm14.97,-0.29c-0.51,0 -0.95,-0.4 -0.99,-0.92c-0.04,-0.55 0.37,-1.03 0.92,-1.08l0.07,1l0.01,-1c0.57,-0.04 1.04,0.36 1.09,0.91c0.05,0.55 -0.36,1.03 -0.91,1.08c0,0 -0.11,0.01 -0.11,0.01c-0.03,0 -0.05,0 -0.08,0zm-19.99,-0.07c-0.02,0 -0.06,0 -0.09,0c0,0 -0.1,-0.01 -0.11,-0.01c-0.55,-0.06 -0.95,-0.55 -0.89,-1.1c0.06,-0.55 0.54,-0.94 1.1,-0.89l-0.1,1l0.18,-0.99c0.55,0.05 0.96,0.54 0.91,1.09c-0.05,0.51 -0.48,0.9 -1,0.9zm25.09,-0.43c-0.51,0 -0.98,-0.37 -1.04,-0.89c-0.06,-0.54 0.28,-1.03 0.83,-1.09c0,-0.01 0.11,-0.02 0.11,-0.02c0.55,-0.07 1.04,0.35 1.1,0.89c0.06,0.55 -0.34,1.05 -0.89,1.1c-0.04,0.01 -0.07,0.01 -0.11,0.01zm-30.07,-0.19c-0.06,0 -0.11,0 -0.17,-0.01c-0.54,-0.09 -0.96,-0.6 -0.87,-1.15c0.08,-0.54 0.55,-0.92 1.09,-0.84c0,0 0.1,0.02 0.1,0.02c0.55,0.09 0.92,0.6 0.83,1.14c-0.08,0.5 -0.5,0.84 -0.98,0.84zm35.06,-0.48c-0.5,0 -0.96,-0.35 -1.04,-0.84c-0.08,-0.55 0.25,-1.05 0.79,-1.13c0,0 0.1,-0.02 0.1,-0.02c0.55,-0.08 1.06,0.3 1.14,0.85c0.08,0.54 -0.3,1.05 -0.84,1.13c-0.06,0.01 -0.11,0.01 -0.15,0.01zm-40.01,-0.41c-0.07,0 -0.14,-0.01 -0.21,-0.02c-0.54,-0.12 -0.94,-0.66 -0.82,-1.2c0.11,-0.54 0.6,-0.89 1.14,-0.78l0.09,0.02c0.55,0.11 0.89,0.65 0.78,1.19c-0.1,0.47 -0.52,0.79 -0.98,0.79zm-4.89,-1.19c-0.08,0 -0.17,-0.02 -0.26,-0.04c0,0 -0.1,-0.03 -0.1,-0.03c-0.54,-0.15 -0.85,-0.7 -0.7,-1.23c0.15,-0.53 0.71,-0.84 1.24,-0.69l-0.27,0.96l0.35,-0.94c0.54,0.15 0.85,0.7 0.71,1.23c-0.12,0.44 -0.53,0.74 -0.97,0.74zm-4.8,-1.51c-0.11,0 -0.23,-0.02 -0.34,-0.06c-0.52,-0.19 -0.83,-0.77 -0.65,-1.29c0.19,-0.51 0.71,-0.8 1.23,-0.62c0,0 0.1,0.03 0.11,0.04c0.52,0.19 0.78,0.77 0.59,1.28c-0.15,0.4 -0.53,0.65 -0.94,0.65zm-4.68,-1.81c-0.13,0 -0.26,-0.03 -0.39,-0.08c0,0 -0.1,-0.05 -0.1,-0.05c-0.5,-0.22 -0.74,-0.81 -0.52,-1.31c0.22,-0.51 0.81,-0.74 1.32,-0.52l-0.4,0.92l0.48,-0.89c0.51,0.22 0.75,0.8 0.53,1.31c-0.16,0.39 -0.53,0.62 -0.92,0.62zm-4.55,-2.15c-0.15,0 -0.31,-0.03 -0.46,-0.11c-0.49,-0.25 -0.72,-0.88 -0.47,-1.37c0.26,-0.49 0.82,-0.7 1.3,-0.45l0.09,0.05c0.49,0.25 0.69,0.85 0.43,1.34c-0.18,0.35 -0.52,0.54 -0.89,0.54zm-4.38,-2.46c-0.19,0 -0.38,-0.05 -0.54,-0.15c-0.46,-0.3 -0.64,-0.94 -0.35,-1.4c0.29,-0.46 0.85,-0.64 1.32,-0.35c0.01,0 0.1,0.06 0.11,0.06c0.46,0.3 0.6,0.92 0.3,1.38c-0.19,0.3 -0.51,0.46 -0.84,0.46zm-4.2,-2.76c-0.21,0 -0.41,-0.07 -0.59,-0.2c-0.44,-0.33 -0.58,-0.97 -0.26,-1.42c0.32,-0.44 0.89,-0.57 1.34,-0.26c0.01,0 0.1,0.07 0.11,0.07c0.44,0.33 0.53,0.96 0.2,1.4c-0.19,0.27 -0.49,0.41 -0.8,0.41zm-3.99,-3.06c-0.23,0 -0.45,-0.08 -0.64,-0.23c-0.43,-0.36 -0.52,-1.02 -0.17,-1.44c0.35,-0.43 0.94,-0.52 1.37,-0.17l0.08,0.07c0.42,0.35 0.48,0.98 0.13,1.4c-0.2,0.24 -0.49,0.37 -0.77,0.37zm-3.77,-3.33c-0.25,0 -0.49,-0.09 -0.69,-0.27c0,0 -0.07,-0.07 -0.07,-0.08c-0.4,-0.38 -0.42,-1.01 -0.03,-1.41c0.38,-0.4 1.01,-0.41 1.41,-0.03l-0.69,0.72l0.75,-0.66c0.41,0.38 0.43,1.01 0.05,1.41c-0.2,0.21 -0.46,0.32 -0.73,0.32zm-3.54,-3.57c-0.27,0 -0.54,-0.11 -0.73,-0.33c-0.38,-0.4 -0.39,-1.07 0.02,-1.44c0.4,-0.38 1,-0.39 1.37,0.01c0.01,0 0.08,0.08 0.08,0.08c0.37,0.41 0.34,1.04 -0.06,1.41c-0.19,0.18 -0.44,0.27 -0.68,0.27z" fill="#FFFFFF" id="svg_170"/>
       <path d="m190.12,198.54c-0.47,0 -0.89,-0.32 -0.99,-0.8c-0.11,-0.54 0.23,-1.06 0.77,-1.17c0.01,0 0.03,-0.01 0.04,-0.01c0.54,-0.09 1.06,0.26 1.16,0.8c0.1,0.54 -0.24,1.06 -0.78,1.16c-0.06,0.02 -0.13,0.02 -0.2,0.02z" fill="#FFFFFF" id="svg_171"/>
      </g>
      <path d="m165.65,158.19c-0.01,0 -0.01,0 -0.02,0c-0.55,-0.01 -1.04,-0.47 -1.03,-1.02c0.01,-0.55 0.41,-0.97 0.96,-0.99l0.1,0c0.56,0.01 1,0.47 0.99,1.02c-0.01,0.55 -0.45,0.99 -1,0.99zm5.09,-0.12c-0.52,0 -1.01,-0.41 -1.04,-0.94c-0.03,-0.55 0.34,-1.02 0.89,-1.05l0.1,-0.01c0.54,-0.04 1.02,0.39 1.06,0.94s-0.39,1.02 -0.94,1.06c-0.03,0 -0.05,0 -0.07,0zm-10.18,-0.15c-0.03,0 -0.07,0 -0.1,0c-0.55,-0.05 -1,-0.54 -0.95,-1.09c0.05,-0.55 0.51,-0.95 1.04,-0.91l0.11,0.01c0.55,0.06 0.95,0.55 0.9,1.1c-0.06,0.51 -0.49,0.89 -1,0.89zm15.16,-0.31c-0.5,0 -0.93,-0.37 -0.99,-0.88c-0.06,-0.55 0.33,-1.05 0.88,-1.11l0.11,0.99l-0.03,-1c0.55,-0.08 1.05,0.31 1.12,0.85c0.08,0.55 -0.31,1.05 -0.85,1.13c-0.01,0 -0.11,0.01 -0.12,0.01c-0.04,0.01 -0.08,0.01 -0.12,0.01zm-20.21,-0.35c-0.05,0 -0.11,0 -0.16,-0.01l-0.11,-0.02c-0.54,-0.1 -0.91,-0.62 -0.81,-1.16c0.09,-0.55 0.61,-0.91 1.16,-0.81l0.09,0.01c0.54,0.09 0.91,0.61 0.82,1.15c-0.08,0.49 -0.51,0.84 -0.99,0.84zm-4.98,-1.08c-0.08,0 -0.17,-0.01 -0.26,-0.04c-0.53,-0.14 -0.89,-0.7 -0.75,-1.23c0.14,-0.53 0.63,-0.86 1.16,-0.73c0.01,0 0.11,0.03 0.11,0.03c0.54,0.15 0.85,0.7 0.71,1.23c-0.12,0.45 -0.53,0.74 -0.97,0.74zm-4.87,-1.5c-0.11,0 -0.22,-0.02 -0.33,-0.06c-0.53,-0.19 -0.84,-0.78 -0.65,-1.3c0.18,-0.52 0.71,-0.8 1.23,-0.62l0.09,0.03c0.52,0.19 0.79,0.76 0.61,1.28c-0.15,0.41 -0.54,0.67 -0.95,0.67zm-4.72,-1.93c-0.13,0 -0.27,-0.03 -0.41,-0.09l-0.1,-0.05c-0.5,-0.23 -0.72,-0.83 -0.48,-1.33c0.23,-0.5 0.83,-0.71 1.33,-0.48l0.08,0.04c0.5,0.23 0.72,0.82 0.5,1.32c-0.17,0.37 -0.53,0.59 -0.92,0.59zm-4.53,-2.33c-0.17,0 -0.34,-0.05 -0.5,-0.14c-0.48,-0.27 -0.69,-0.9 -0.42,-1.38c0.27,-0.48 0.85,-0.67 1.33,-0.4l0.1,0.06c0.48,0.28 0.63,0.89 0.36,1.37c-0.19,0.31 -0.52,0.49 -0.87,0.49zm-4.32,-2.72c-0.19,0 -0.39,-0.06 -0.57,-0.18c-0.45,-0.31 -0.6,-0.96 -0.29,-1.42c0.32,-0.45 0.9,-0.59 1.36,-0.28l0.08,0.06c0.45,0.32 0.56,0.94 0.25,1.39c-0.2,0.28 -0.51,0.43 -0.83,0.43zm-4.07,-3.07c-0.22,0 -0.44,-0.08 -0.63,-0.23c0,0 -0.08,-0.06 -0.08,-0.06c-0.42,-0.36 -0.48,-0.99 -0.13,-1.41c0.35,-0.43 0.98,-0.49 1.41,-0.14l-0.64,0.77l0.71,-0.71c0.43,0.35 0.49,0.98 0.14,1.41c-0.2,0.24 -0.48,0.37 -0.78,0.37zm-3.8,-3.41c-0.24,0 -0.49,-0.09 -0.68,-0.27c-0.01,0 -0.09,-0.08 -0.09,-0.09c-0.4,-0.39 -0.4,-1.02 0,-1.41c0.39,-0.39 1.02,-0.39 1.41,0l-0.71,0.71l0.76,-0.66c0.4,0.37 0.42,1.01 0.04,1.41c-0.19,0.21 -0.46,0.31 -0.73,0.31zm-3.51,-3.7c-0.27,0 -0.55,-0.11 -0.75,-0.34c0,0 -0.07,-0.08 -0.07,-0.08c-0.36,-0.42 -0.31,-1.05 0.11,-1.41c0.41,-0.36 1.04,-0.32 1.41,0.1l-0.76,0.66l0.81,-0.59c0.37,0.41 0.33,1.05 -0.08,1.41c-0.19,0.17 -0.43,0.25 -0.67,0.25zm-3.19,-3.99c-0.31,0 -0.62,-0.14 -0.81,-0.41c-0.32,-0.45 -0.25,-1.11 0.19,-1.44c0.45,-0.32 1.05,-0.26 1.37,0.18l0.07,0.09c0.32,0.45 0.21,1.08 -0.24,1.4c-0.17,0.12 -0.38,0.18 -0.58,0.18zm-2.79,-4.28c-0.36,0 -0.7,-0.19 -0.88,-0.53l-0.05,-0.08c-0.26,-0.49 -0.08,-1.1 0.41,-1.36c0.48,-0.26 1.09,-0.08 1.35,0.41l0.05,0.09c0.26,0.48 0.08,1.09 -0.41,1.35c-0.15,0.08 -0.31,0.12 -0.47,0.12z" fill="#DEA75A" id="svg_172"/>
      <path d="m98.26,202.27c-0.55,0 -1.05,-0.44 -1.05,-0.99c0,-0.55 0.39,-1 0.93,-1.01c0.01,0 0.11,0 0.12,0c0.55,0 1,0.45 1,1c0,0.55 -0.45,1 -1,1zm-5.1,-0.05c-0.01,0 -0.02,0 -0.03,0c-0.55,-0.01 -1.03,-0.48 -1.02,-1.03c0.02,-0.55 0.45,-0.98 0.98,-0.97l0.1,0c0.55,0.02 0.99,0.48 0.97,1.03c-0.02,0.55 -0.46,0.97 -1,0.97zm10.19,-0.12c-0.53,0 -1.02,-0.41 -1.04,-0.94c-0.03,-0.55 0.34,-1.02 0.89,-1.05c0,0 0.11,-0.01 0.11,-0.01c0.55,-0.01 1.02,0.41 1.04,0.96c0.03,0.55 -0.4,1.02 -0.95,1.04c-0.01,0 -0.03,0 -0.05,0zm-15.28,-0.13c-0.02,0 -0.04,0 -0.06,0c-0.01,0 -0.11,-0.01 -0.12,-0.01c-0.55,-0.04 -0.96,-0.52 -0.92,-1.07c0.04,-0.55 0.52,-0.97 1.07,-0.92l-0.07,1l0.15,-0.99c0.56,0.03 0.98,0.5 0.94,1.05c-0.03,0.53 -0.47,0.94 -0.99,0.94zm20.35,-0.26c-0.51,0 -0.98,-0.38 -1.03,-0.9c-0.06,-0.55 0.3,-1.03 0.85,-1.09l0.11,-0.01c0.56,-0.04 1.04,0.36 1.09,0.91c0.05,0.55 -0.36,1.03 -0.91,1.08c-0.04,0.01 -0.07,0.01 -0.11,0.01zm4.98,-0.63c-0.49,0 -0.92,-0.35 -0.99,-0.85c-0.08,-0.55 0.3,-1.06 0.84,-1.14l0.15,0.99l-0.05,-1c0.54,-0.08 1.05,0.29 1.14,0.84c0.08,0.55 -0.29,1.06 -0.84,1.14c0,0 -0.1,0.01 -0.11,0.01c-0.04,0.01 -0.09,0.01 -0.14,0.01zm5.11,-0.9c-0.47,0 -0.92,-0.32 -1.02,-0.79c-0.11,-0.54 0.19,-1.05 0.73,-1.17c0,0 0.11,-0.02 0.11,-0.02c0.54,-0.1 1.07,0.25 1.17,0.79c0.11,0.55 -0.25,1.07 -0.79,1.17c-0.07,0.01 -0.13,0.02 -0.2,0.02zm4.88,-1.13c-0.45,0 -0.85,-0.3 -0.97,-0.75c-0.14,-0.54 0.18,-1.08 0.72,-1.22l0.09,-0.02c0.53,-0.14 1.08,0.17 1.22,0.71c0.15,0.53 -0.17,1.08 -0.71,1.22l-0.1,0.03c-0.08,0.02 -0.17,0.03 -0.25,0.03zm4.9,-1.43c-0.43,0 -0.82,-0.27 -0.96,-0.69c-0.16,-0.53 0.13,-1.09 0.65,-1.26l0.09,-0.03c0.52,-0.17 1.09,0.12 1.26,0.64c0.17,0.53 -0.11,1.09 -0.64,1.26l-0.1,0.04c-0.1,0.03 -0.2,0.04 -0.3,0.04zm4.8,-1.71c-0.4,0 -0.78,-0.24 -0.93,-0.63c-0.2,-0.52 0.05,-1.1 0.56,-1.3l0.1,-0.04c0.51,-0.2 1.09,0.06 1.29,0.57c0.21,0.52 -0.05,1.1 -0.56,1.3l-0.1,0.03c-0.12,0.05 -0.24,0.07 -0.36,0.07zm4.69,-2c-0.38,0 -0.74,-0.22 -0.91,-0.58c-0.23,-0.5 -0.02,-1.1 0.48,-1.33l0.09,-0.04c0.51,-0.24 1.1,-0.02 1.33,0.48c0.24,0.5 0.02,1.1 -0.48,1.33l-0.09,0.04c-0.14,0.07 -0.28,0.1 -0.42,0.1zm4.55,-2.31c-0.36,0 -0.7,-0.19 -0.88,-0.52c-0.27,-0.48 -0.09,-1.09 0.39,-1.35l0.09,-0.05c0.48,-0.27 1.09,-0.09 1.36,0.39c0.27,0.49 0.09,1.09 -0.4,1.36l-0.08,0.05c-0.16,0.08 -0.32,0.12 -0.48,0.12zm4.38,-2.6c-0.33,0 -0.66,-0.16 -0.85,-0.46c-0.29,-0.47 -0.16,-1.08 0.31,-1.38l0.54,0.84l-0.46,-0.89c0.47,-0.3 1.08,-0.17 1.38,0.3c0.3,0.46 0.17,1.08 -0.3,1.38c0,0 -0.08,0.05 -0.08,0.05c-0.17,0.11 -0.36,0.16 -0.54,0.16zm4.23,-2.94c-0.31,0 -0.61,-0.13 -0.8,-0.39c-0.33,-0.44 -0.28,-1.03 0.16,-1.36c0.01,-0.01 0.09,-0.07 0.1,-0.08c0.45,-0.32 1.08,-0.21 1.4,0.23c0.32,0.45 0.21,1.08 -0.24,1.4c-0.18,0.13 -0.4,0.2 -0.62,0.2zm3.95,-3.13c-0.29,0 -0.57,-0.12 -0.77,-0.36c-0.36,-0.42 -0.3,-1.05 0.12,-1.41l0.07,-0.06c0.42,-0.36 1.05,-0.31 1.41,0.11c0.36,0.41 0.31,1.05 -0.1,1.41l-0.09,0.07c-0.19,0.16 -0.41,0.24 -0.64,0.24zm3.76,-3.5c-0.25,0 -0.5,-0.09 -0.69,-0.28c-0.39,-0.39 -0.42,-0.99 -0.03,-1.38l0.09,-0.09c0.39,-0.38 1.03,-0.37 1.41,0.03c0.38,0.4 0.37,1.03 -0.03,1.42c-0.2,0.2 -0.48,0.3 -0.75,0.3zm3.49,-3.66c-0.24,0 -0.48,-0.08 -0.67,-0.26c-0.41,-0.37 -0.44,-1 -0.07,-1.41l0.04,-0.05c0.36,-0.42 0.99,-0.48 1.41,-0.12c0.42,0.36 0.48,0.99 0.12,1.41l-0.09,0.1c-0.2,0.22 -0.47,0.33 -0.74,0.33zm3.24,-3.93c-0.22,0 -0.43,-0.07 -0.61,-0.21c-0.44,-0.34 -0.52,-0.97 -0.18,-1.41l0.79,0.62l-0.74,-0.68c0.33,-0.44 0.95,-0.53 1.4,-0.2c0.44,0.32 0.53,0.95 0.2,1.39c0,0.01 -0.07,0.1 -0.07,0.1c-0.2,0.25 -0.49,0.39 -0.79,0.39zm2.97,-4.2c-0.19,0 -0.37,-0.05 -0.53,-0.16c-0.46,-0.3 -0.61,-0.88 -0.3,-1.34c0,0 0.06,-0.09 0.06,-0.09c0.31,-0.46 0.93,-0.57 1.39,-0.27c0.45,0.31 0.57,0.94 0.26,1.39c-0.2,0.3 -0.54,0.47 -0.88,0.47z" fill="#DEA75A" id="svg_173"/>
      <path d="m152.73,117.82c0,1.48 -1.2,2.68 -2.68,2.68c-1.48,0 -2.69,-1.2 -2.69,-2.68c0,-1.48 1.2,-2.68 2.69,-2.68c1.47,0 2.68,1.2 2.68,2.68z" fill="#DEA75A" id="svg_174"/>
      <path d="m139.13,93.02c0,1.48 -1.2,2.68 -2.68,2.68c-1.48,0 -2.68,-1.2 -2.68,-2.68c0,-1.48 1.2,-2.68 2.68,-2.68c1.48,0 2.68,1.2 2.68,2.68z" fill="#DEA75A" id="svg_175"/>
      <path d="m166.9,144.96c0,1.48 -1.2,2.68 -2.68,2.68c-1.49,0 -2.69,-1.2 -2.69,-2.68c0,-1.48 1.2,-2.68 2.69,-2.68c1.48,0 2.68,1.2 2.68,2.68z" fill="#DEA75A" id="svg_176"/>
      <path d="m168.17,190.66c0,1.48 -1.2,2.68 -2.68,2.68s-2.68,-1.2 -2.68,-2.68c0,-1.48 1.2,-2.68 2.68,-2.68s2.68,1.2 2.68,2.68z" fill="#DEA75A" id="svg_177"/>
      <path d="m137.6,181.34c0,1.48 -1.2,2.68 -2.68,2.68c-1.48,0 -2.68,-1.2 -2.68,-2.68c0,-1.48 1.2,-2.68 2.68,-2.68c1.48,0 2.68,1.2 2.68,2.68z" fill="#DEA75A" id="svg_178"/>
      <path d="m151.14,163.54c0,1.48 -1.2,2.68 -2.68,2.68c-1.48,0 -2.68,-1.2 -2.68,-2.68c0,-1.48 1.2,-2.68 2.68,-2.68c1.48,0 2.68,1.2 2.68,2.68z" fill="#DEA75A" id="svg_179"/>
      <path d="m141.2,123.18c0,1.48 -1.2,2.68 -2.68,2.68c-1.48,0 -2.68,-1.2 -2.68,-2.68c0,-1.48 1.2,-2.68 2.68,-2.68c1.48,0 2.68,1.2 2.68,2.68z" fill="#DEA75A" id="svg_180"/>
      <path d="m147.63,100.11c0,1.03 -0.83,1.86 -1.86,1.86s-1.85,-0.83 -1.85,-1.86c0,-1.02 0.83,-1.85 1.85,-1.85s1.86,0.83 1.86,1.85z" fill="#DEA75A" id="svg_181"/>
      <path d="m127.79,105.58c0,1.02 -0.83,1.85 -1.85,1.85c-1.03,0 -1.86,-0.83 -1.86,-1.85c0,-1.02 0.83,-1.85 1.86,-1.85c1.02,0 1.85,0.83 1.85,1.85z" fill="#DEA75A" id="svg_182"/>
      <circle cx="151.9" cy="144.53" fill="#DEA75A" id="svg_183" r="1.85"/>
      <path d="m173.73,178.03c0,1.02 -0.83,1.85 -1.85,1.85s-1.86,-0.83 -1.86,-1.85c0,-1.02 0.83,-1.85 1.86,-1.85s1.85,0.83 1.85,1.85z" fill="#DEA75A" id="svg_184"/>
      <path d="m158.21,170.65c0,1.02 -0.82,1.85 -1.85,1.85c-1.02,0 -1.85,-0.83 -1.85,-1.85c0,-1.02 0.83,-1.85 1.85,-1.85c1.03,0 1.85,0.83 1.85,1.85z" fill="#DEA75A" id="svg_185"/>
      <path d="m150.31,128.16c0,1.02 -0.83,1.85 -1.85,1.85c-1.03,0 -1.85,-0.83 -1.85,-1.85c0,-1.02 0.82,-1.85 1.85,-1.85c1.02,0 1.85,0.83 1.85,1.85z" fill="#DEA75A" id="svg_186"/>
      <circle cx="182.21" cy="190.66" fill="#DEA75A" id="svg_187" r="1.85"/>
     </g>
     <g id="svg_188">
      <g id="svg_189" transform="matrix(1 0 0 1 0 0)">
       <ellipse cx="202.37" cy="-116.79" fill="#FFFFFF" id="svg_190" rx="37.45" ry="37.45" transform="matrix(0.5735 -0.8192 0.8192 0.5735 63.9328 319.304)"/>
       <path d="m95.29,120.01c-20.36,3.59 -39.79,-10.01 -43.38,-30.37c-1.83,-10.34 0.78,-20.43 6.45,-28.34c13.89,-10.57 47.56,-4.08 48.23,-4.86c-4.36,-3.89 -42.48,-4.73 -42.61,-1.37c-12.26,7.93 -19.25,22.69 -16.55,37.97c3.59,20.37 23.02,33.97 43.38,30.37c7.06,-1.24 13.3,-4.39 18.3,-8.82c-4.08,2.64 -8.74,4.52 -13.82,5.42z" fill="#EBF0F7" id="svg_191"/>
      </g>
      <g id="svg_192">
       <path d="m87.53,31.64c-0.6,4.38 -4.64,7.45 -9.02,6.85c-4.39,-0.6 -7.45,-4.64 -6.86,-9.02c0.6,-4.39 4.64,-7.45 9.03,-6.85s7.45,4.63 6.85,9.02z" fill="#FFFFFF" id="svg_193"/>
       <path d="m81.31,35.56c-4.38,-0.6 -7.45,-4.64 -6.85,-9.02c0.14,-1.02 0.47,-1.97 0.94,-2.81c-1.97,1.21 -3.41,3.26 -3.75,5.74c-0.59,4.38 2.47,8.42 6.86,9.02c3.36,0.46 6.51,-1.24 8.07,-4.04c-1.52,0.93 -3.36,1.37 -5.27,1.11z" fill="#EBF0F7" id="svg_194"/>
       <path d="m61.09,52.47l44.37,-0.61c0,0 -3.89,-18.56 -22.84,-18.81c-18.94,-0.25 -21.53,19.42 -21.53,19.42z" fill="#DEA75A" id="svg_195"/>
       <g id="svg_196">
        <path d="m80.67,33.1c-17.17,1.07 -19.58,19.37 -19.58,19.37l5.29,-0.07c0.48,-4.6 2.84,-15.71 14.29,-19.3z" fill="#D3964C" id="svg_197"/>
       </g>
       <path d="m60.48,55.75l0.03,-3.04c0,-0.42 0.29,-0.77 0.69,-0.9c12.88,-5.21 33.4,-6.05 44.58,-0.36c0.39,0.16 0.68,0.49 0.68,0.91l0,3c0,0.61 -0.56,1.04 -1.15,0.91c-14.66,-3.45 -29.58,-3.14 -43.67,0.39c-0.59,0.15 -1.16,-0.3 -1.16,-0.91z" fill="#FFFFFF" id="svg_198"/>
      </g>
      <g id="svg_199">
       <g id="svg_200">
        <path d="m63.47,90.43c-9.2,0 -16.68,-7.48 -16.68,-16.68s7.48,-16.68 16.68,-16.68s16.68,7.48 16.68,16.68s-7.49,16.68 -16.68,16.68zm0,-31.36c-8.1,0 -14.68,6.59 -14.68,14.68c0,8.09 6.58,14.68 14.68,14.68c8.09,0 14.68,-6.59 14.68,-14.68c-0.01,-8.09 -6.59,-14.68 -14.68,-14.68z" fill="#343B54" id="svg_201"/>
        <path d="m104.87,90.43c-9.19,0 -16.67,-7.48 -16.67,-16.68s7.48,-16.68 16.67,-16.68s16.68,7.48 16.68,16.68s-7.48,16.68 -16.68,16.68zm0,-31.36c-8.09,0 -14.67,6.59 -14.67,14.68c0,8.09 6.58,14.68 14.67,14.68c8.1,0 14.68,-6.59 14.68,-14.68c0,-8.09 -6.58,-14.68 -14.68,-14.68z" fill="#343B54" id="svg_202"/>
        <path d="m78.82,71.55c-0.2,0 -0.41,-0.06 -0.58,-0.19c-0.45,-0.32 -0.56,-0.94 -0.24,-1.39c1.14,-1.6 2.92,-2.59 5.03,-2.79c2.59,-0.24 5.2,0.73 7.19,2.65c0.39,0.38 0.41,1.01 0.02,1.41c-0.38,0.4 -1.01,0.41 -1.41,0.03c-1.55,-1.5 -3.65,-2.28 -5.62,-2.09c-1.51,0.14 -2.78,0.83 -3.58,1.95c-0.19,0.27 -0.5,0.42 -0.81,0.42z" fill="#343B54" id="svg_203"/>
       </g>
       <path d="m56.26,60.34c0.39,-0.32 0.85,-0.58 1.29,-0.82c0.6,-0.32 1.21,-0.6 1.82,-0.89c-0.27,-0.27 -0.63,-0.46 -1.04,-0.54c-2.06,-0.39 -3.87,-1.07 -5.39,-2.02c-1.57,-1.01 -2.92,-2.37 -3.91,-3.96c-0.35,-0.54 -0.66,-1.14 -0.94,-1.77c0.22,-0.07 0.44,-0.15 0.65,-0.25c1.03,-0.45 1.99,-1.28 2.7,-2.32c0.56,-0.82 0.99,-1.78 1.31,-2.92c0.13,-0.47 0.24,-0.97 0.31,-1.47c0.04,-0.25 0.07,-0.5 0.1,-0.76c0.03,-0.26 0.04,-0.49 0.05,-0.81l-0.73,-0.02l0.73,0.01c0,-0.05 0,-0.11 0,-0.16c-0.03,-0.56 -0.28,-1.08 -0.7,-1.46c-0.43,-0.37 -0.97,-0.56 -1.53,-0.53c-0.57,0.04 -1.08,0.29 -1.46,0.71c-0.37,0.42 -0.56,0.96 -0.53,1.52c0.01,0.11 0.01,0.3 0,0.45c-0.01,0.17 -0.02,0.35 -0.03,0.53c-0.03,0.36 -0.09,0.7 -0.15,1.03c-0.15,0.71 -0.37,1.31 -0.65,1.78c-0.29,0.5 -0.65,0.86 -1.07,1.08c-0.06,0.03 -0.12,0.06 -0.19,0.09c0,-0.02 -0.01,-0.04 -0.01,-0.06c-0.21,-0.94 -0.37,-1.92 -0.46,-2.92c-0.04,-0.5 -0.07,-0.99 -0.08,-1.48c0,-0.25 -0.01,-0.49 0,-0.73c0,-0.23 0.01,-0.49 0.02,-0.65c0.01,-0.04 0.01,-0.09 0.01,-0.13c0.03,-0.67 -0.21,-1.32 -0.68,-1.82c-0.46,-0.49 -1.08,-0.78 -1.76,-0.81c-0.67,-0.01 -1.32,0.22 -1.82,0.68c-0.49,0.46 -0.78,1.09 -0.81,1.76c-0.01,0.39 -0.01,0.67 0,1c0.01,0.3 0.03,0.61 0.04,0.91c0.04,0.65 0.11,1.27 0.18,1.8c0.16,1.22 0.4,2.41 0.71,3.54c0.58,2.15 1.41,4.08 2.45,5.77l-0.02,0c-0.05,0 -0.1,-0.01 -0.15,-0.01c-0.05,-0.01 -0.11,-0.01 -0.15,-0.01l-0.73,-0.05c-0.14,-0.02 -0.27,-0.05 -0.4,-0.08c-0.11,-0.02 -0.22,-0.05 -0.3,-0.06l-0.16,-0.03c-0.06,-0.02 -0.12,-0.03 -0.12,-0.02l-0.71,-0.26l-0.29,-0.13c-0.77,-0.35 -1.47,-0.91 -2.09,-1.64c-0.1,-0.11 -0.18,-0.23 -0.27,-0.35l-0.16,-0.21c-0.04,-0.08 -0.09,-0.15 -0.14,-0.23c-0.08,-0.12 -0.15,-0.23 -0.23,-0.37c-0.11,-0.2 -0.22,-0.41 -0.31,-0.63c-0.09,-0.19 -0.18,-0.43 -0.22,-0.56l-0.04,-0.11c-0.17,-0.52 -0.53,-0.93 -1.02,-1.17c-0.48,-0.24 -1.04,-0.28 -1.55,-0.1c-0.51,0.17 -0.93,0.53 -1.17,1.02c-0.24,0.49 -0.27,1.04 -0.1,1.55c0.14,0.42 0.28,0.72 0.44,1.07c0.14,0.29 0.31,0.6 0.5,0.93c0.12,0.21 0.26,0.41 0.4,0.61l0.37,0.51c0.16,0.21 0.32,0.41 0.5,0.61c0.2,0.23 0.42,0.44 0.64,0.65c-0.34,0.23 -0.74,0.38 -1.25,0.49c-0.47,0.08 -0.97,0.07 -1.47,-0.05c-0.22,-0.05 -0.52,-0.13 -0.8,-0.25c-0.12,-0.05 -0.25,-0.11 -0.37,-0.17c-0.11,-0.05 -0.24,-0.13 -0.3,-0.17l-0.06,-0.04c-0.87,-0.54 -1.98,-0.3 -2.55,0.54c-0.28,0.42 -0.38,0.92 -0.28,1.4c0.1,0.49 0.38,0.92 0.79,1.19c0.27,0.18 0.46,0.29 0.68,0.41c0.22,0.11 0.44,0.21 0.65,0.3c0.4,0.17 0.83,0.31 1.37,0.45c0.59,0.14 1.19,0.21 1.78,0.21c0.41,0 0.81,-0.03 1.21,-0.1c1.06,-0.18 2.03,-0.57 2.75,-1.07c0.34,-0.19 0.62,-0.43 0.86,-0.64c0.1,-0.08 0.19,-0.16 0.33,-0.27c0.04,-0.04 0.07,-0.07 0.1,-0.11l0.98,0.35c0.12,0.03 0.24,0.05 0.36,0.07l0.48,0.09c0.25,0.04 0.49,0.09 0.77,0.11l1.16,0.05c0.07,0 0.15,0.01 0.23,0.01c0.06,0 0.12,-0.01 0.19,-0.01l1.5,-0.14c0.34,-0.06 0.67,-0.13 1.01,-0.21c1.02,1.02 2.18,1.91 3.42,2.63c1.29,0.74 2.73,1.31 4.27,1.73c0.42,-0.35 0.81,-0.75 1.24,-1.09z" fill="#343B54" id="svg_204"/>
       <path d="m112.35,60.34c-0.39,-0.32 -0.85,-0.58 -1.29,-0.82c-0.6,-0.32 -1.21,-0.6 -1.82,-0.89c0.28,-0.27 0.63,-0.46 1.04,-0.54c2.06,-0.39 3.87,-1.07 5.39,-2.02c1.57,-1.01 2.93,-2.37 3.91,-3.96c0.35,-0.54 0.66,-1.14 0.94,-1.77c-0.22,-0.07 -0.44,-0.15 -0.64,-0.25c-1.04,-0.45 -2,-1.28 -2.71,-2.32c-0.56,-0.82 -0.98,-1.78 -1.3,-2.92c-0.14,-0.47 -0.24,-0.97 -0.32,-1.47c-0.04,-0.25 -0.07,-0.5 -0.1,-0.76c-0.02,-0.26 -0.04,-0.49 -0.05,-0.81l0.73,-0.02l-0.73,0.01c0,-0.05 0,-0.11 0.01,-0.16c0.03,-0.56 0.28,-1.08 0.7,-1.46c0.42,-0.37 0.96,-0.56 1.53,-0.53c0.56,0.04 1.08,0.29 1.45,0.71c0.38,0.42 0.57,0.96 0.53,1.52c0,0.11 0,0.3 0,0.45c0.01,0.17 0.02,0.35 0.04,0.53c0.03,0.36 0.08,0.7 0.15,1.03c0.15,0.71 0.36,1.31 0.64,1.78c0.3,0.5 0.65,0.86 1.07,1.08c0.06,0.03 0.12,0.06 0.19,0.09c0,-0.02 0.01,-0.04 0.02,-0.06c0.21,-0.94 0.36,-1.92 0.45,-2.92c0.04,-0.5 0.07,-0.99 0.08,-1.48c0.01,-0.25 0.01,-0.49 0.01,-0.73c-0.01,-0.23 -0.01,-0.49 -0.03,-0.65c0,-0.04 -0.01,-0.09 -0.01,-0.13c-0.02,-0.67 0.22,-1.32 0.68,-1.82s1.09,-0.78 1.76,-0.81c0.67,-0.01 1.33,0.22 1.82,0.68c0.5,0.46 0.79,1.09 0.81,1.76c0.01,0.39 0.01,0.67 0,1c-0.01,0.3 -0.02,0.61 -0.04,0.91c-0.04,0.65 -0.11,1.27 -0.18,1.8c-0.16,1.22 -0.4,2.41 -0.7,3.54c-0.58,2.15 -1.42,4.08 -2.45,5.77l0.01,0c0.05,0 0.1,-0.01 0.15,-0.01c0.06,-0.01 0.11,-0.01 0.16,-0.01l0.73,-0.05c0.13,-0.02 0.27,-0.05 0.4,-0.08c0.1,-0.02 0.21,-0.05 0.29,-0.06l0.16,-0.03c0.06,-0.02 0.13,-0.03 0.12,-0.02l0.72,-0.26l0.28,-0.13c0.77,-0.35 1.48,-0.91 2.09,-1.64c0.1,-0.11 0.19,-0.23 0.28,-0.35l0.15,-0.21c0.05,-0.08 0.1,-0.15 0.15,-0.23c0.07,-0.12 0.15,-0.23 0.22,-0.37c0.11,-0.2 0.22,-0.41 0.32,-0.63c0.08,-0.19 0.17,-0.43 0.22,-0.56l0.03,-0.11c0.17,-0.52 0.54,-0.93 1.02,-1.17c0.49,-0.24 1.04,-0.28 1.55,-0.1c0.51,0.17 0.93,0.53 1.17,1.02c0.24,0.49 0.27,1.04 0.1,1.55c-0.14,0.42 -0.27,0.72 -0.44,1.07c-0.14,0.29 -0.31,0.6 -0.5,0.93c-0.12,0.21 -0.26,0.41 -0.4,0.61l-0.37,0.51c-0.16,0.21 -0.32,0.41 -0.5,0.61c-0.2,0.23 -0.42,0.44 -0.64,0.65c0.34,0.23 0.74,0.38 1.25,0.49c0.47,0.08 0.97,0.07 1.47,-0.05c0.23,-0.05 0.52,-0.13 0.8,-0.25c0.13,-0.05 0.25,-0.11 0.37,-0.17c0.11,-0.05 0.24,-0.13 0.3,-0.17l0.06,-0.04c0.87,-0.54 1.99,-0.3 2.55,0.54c0.28,0.42 0.38,0.92 0.28,1.4c-0.1,0.49 -0.38,0.92 -0.79,1.19c-0.27,0.18 -0.46,0.29 -0.68,0.41c-0.22,0.11 -0.44,0.21 -0.65,0.3c-0.4,0.17 -0.83,0.31 -1.37,0.45c-0.58,0.14 -1.19,0.21 -1.78,0.21c-0.41,0 -0.81,-0.03 -1.21,-0.1c-1.06,-0.18 -2.03,-0.57 -2.75,-1.07c-0.34,-0.19 -0.62,-0.43 -0.86,-0.64c-0.1,-0.08 -0.19,-0.16 -0.33,-0.27c-0.04,-0.04 -0.07,-0.07 -0.1,-0.11l-0.98,0.35c-0.12,0.03 -0.24,0.05 -0.36,0.07l-0.48,0.09c-0.25,0.04 -0.49,0.09 -0.77,0.11l-1.16,0.05c-0.07,0 -0.15,0.01 -0.23,0.01c-0.06,0 -0.12,-0.01 -0.18,-0.01l-1.51,-0.14c-0.34,-0.06 -0.67,-0.13 -1,-0.21c-1.03,1.02 -2.19,1.91 -3.43,2.63c-1.29,0.74 -2.73,1.31 -4.27,1.73c-0.42,-0.35 -0.81,-0.75 -1.24,-1.09z" fill="#343B54" id="svg_205"/>
      </g>
      <g id="svg_206">
       <path d="m-188.62,89.97c1,0 1.8,0.81 1.8,1.8c0,1 -0.8,1.81 -1.8,1.81c-1,0 -1.81,-0.81 -1.81,-1.81c0,-1 0.81,-1.8 1.81,-1.8z" fill="#353B55" id="svg_207" transform="matrix(1 0 0 1 0 0)"/>
       <path d="m-131.68,73.56c1,0 1.81,0.81 1.81,1.8c0,1 -0.81,1.81 -1.81,1.81c-0.99,0 -1.8,-0.81 -1.8,-1.81c0,-1 0.81,-1.8 1.8,-1.8z" fill="#353B55" id="svg_208"/>
       <path d="m79.91,92.72c2.5,2.33 5.05,2.38 7.68,-0.04c-2.61,1.35 -5.17,1.33 -7.68,0.04z" fill="#EBF0F7" id="svg_209"/>
       <path d="m69.84,79.86c0,0.89 -1.53,1.62 -3.41,1.62c-1.89,0 -3.41,-0.73 -3.41,-1.62s1.52,-1.62 3.41,-1.62c1.88,0 3.41,0.72 3.41,1.62z" fill="#EBF0F7" id="svg_210"/>
       <ellipse cx="103.45" cy="79.86" fill="#EBF0F7" id="svg_211" rx="3.41" ry="1.62"/>
       <path d="m83.54,91.73c-0.07,0 -0.15,0 -0.23,-0.01c-2.39,-0.06 -4.65,-1.11 -6.37,-2.96c-0.19,-0.2 -0.18,-0.52 0.02,-0.71c0.2,-0.19 0.52,-0.18 0.71,0.03c1.54,1.65 3.55,2.59 5.67,2.65c2.29,0.06 4.62,-0.92 6.52,-2.75c0.2,-0.19 0.51,-0.18 0.71,0.02c0.19,0.2 0.18,0.51 -0.02,0.7c-2.03,1.96 -4.51,3.03 -7.01,3.03z" fill="#343B54" id="svg_212"/>
       <path d="m85.53,76.69c4.56,0 17.78,3.67 17.92,5.46c-0.6,2.21 -13.69,4.15 -18.4,4.13c-5.1,0.01 -5.71,-9.59 0.48,-9.59z" fill="#DEA75A" id="svg_213"/>
      </g>
     </g>
     <g id="svg_214">
      <g id="svg_215">
       <ellipse cx="108.05" cy="65.74" fill="#FFFFFF" id="svg_216" rx="56.58" ry="56.58" transform="matrix(0.9239 -0.3827 0.3827 0.9239 -40.7737 142.773)"/>
       <path d="m90.4,213.13c-30.7,0 -55.58,-24.88 -55.58,-55.58c0,-19.52 10.08,-36.69 25.31,-46.6c-19.21,9.05 -32.51,28.57 -32.51,51.21c0,31.24 25.33,56.57 56.58,56.57c16.68,0 31.68,-7.23 42.04,-18.72c-9.68,8.18 -22.18,13.12 -35.84,13.12z" fill="#EBF0F7" id="svg_217"/>
      </g>
      <g id="svg_218">
       <path d="m115.77,114.56c-0.76,0.2 -1.52,0.38 -2.29,0.54c-2.73,0.59 -5.51,0.94 -8.29,1.3c-2.86,0.38 -5.72,0.78 -8.61,0.96c-5.72,0.35 -11.39,-0.04 -17.11,-0.2c-5.56,-0.17 -11.16,-0.13 -16.64,-1.19c-2.89,-0.55 -5.68,-1.44 -8.41,-2.49c-17.16,9.86 -28.66,27.96 -28.66,48.68c0,2.87 0.22,5.7 0.65,8.46c29.02,12.69 85.15,12 115.57,0c0.43,-2.76 0.66,-5.59 0.66,-8.46c0,-19.98 -10.71,-37.53 -26.87,-47.6z" fill="#DEA75A" id="svg_219"/>
       <path d="m35.69,165.76c-0.91,-20.61 8.27,-39.24 23.02,-50.81c-1.45,-0.43 -2.88,-0.93 -4.29,-1.47c-17.16,9.86 -28.66,27.96 -28.66,48.68c0,2.87 0.22,5.7 0.65,8.46c3.12,1.36 6.56,2.56 10.24,3.62c-0.5,-2.77 -0.83,-5.59 -0.96,-8.48z" fill="#D3964C" id="svg_220"/>
       <path d="m53.69,107.66c20.03,9.27 40.79,10.04 60.75,0.42c1.68,-1.04 4.48,6.96 3.1,8.68c-9.7,19.34 -48.74,20.6 -66.92,0.2c-0.88,-1.69 1.48,-9.62 3.07,-9.3z" fill="#D3964C" id="svg_221"/>
       <path d="m53.69,107.66c20.03,8.11 40.79,8.78 60.75,0.37c1.68,-0.91 4.48,6.09 3.1,7.59c-9.7,16.91 -48.74,18.01 -66.92,0.17c-0.88,-1.47 1.48,-8.41 3.07,-8.13z" fill="#DEA75A" id="svg_222"/>
      </g>
     </g>
     <g id="svg_223">
      <g id="svg_224">
       <path d="m108.97,143.35c0,14.26 -11.04,25.82 -24.66,25.82s-24.67,-11.56 -24.67,-25.82l49.33,0z" fill="#FFFFFF" id="svg_225"/>
       <path d="m64.83,143.35l-5.19,0c0,14.26 11.04,25.82 24.67,25.82c1.05,0 2.08,-0.08 3.1,-0.21c-12.3,-1.62 -21.99,-12.32 -22.58,-25.61z" fill="#F9EEE1" id="svg_226"/>
       <ellipse cx="84.31" cy="143.35" fill="#FFFFFF" id="svg_227" rx="24.66" ry="3.97"/>
       <path d="m106.74,143.35c0,1.55 -10.04,2.45 -22.43,2.45c-12.4,0 -22.44,-0.9 -22.44,-2.45s10.04,-2.97 22.44,-2.97c12.39,0 22.43,1.43 22.43,2.97z" fill="#F9EEE1" id="svg_228"/>
       <g id="svg_229">
        <path d="m104.43,144.52c-3.66,-0.97 -11.29,-1.7 -20.12,-1.7s-16.47,0.73 -20.13,1.7c3.66,0.82 11.3,1.28 20.13,1.28s16.46,-0.46 20.12,-1.28z" fill="#996262" id="svg_230"/>
       </g>
      </g>
      <path d="m80.93,129.69c0.25,-2.05 1.58,-3.78 2.57,-5.6c1,-1.82 1.65,-4.13 0.55,-5.89c1.25,0.7 2.47,1.49 3.41,2.56c0.94,1.08 1.59,2.47 1.52,3.9c-0.09,2.05 -1.56,3.73 -2.89,5.3c-0.68,0.8 -1.34,1.64 -1.8,2.58c-0.67,1.33 -0.99,3 -0.99,3s-1.55,-1.91 -1.89,-2.83c-0.42,-0.94 -0.61,-1.99 -0.48,-3.02z" fill="#FFFFFF" id="svg_231"/>
      <g id="svg_232">
       <path d="m52.84,160.39c-8.24,0 -13.92,-2.14 -16.96,-6.41c-7.3,-10.26 3.66,-28.49 4.13,-29.26c0.44,-0.71 1.36,-0.93 2.07,-0.5c0.7,0.43 0.93,1.36 0.5,2.06c-0.11,0.17 -10.42,17.32 -4.26,25.96c3.94,5.53 14.4,6.63 30.25,3.17c0.81,-0.17 1.61,0.34 1.78,1.15c0.18,0.81 -0.33,1.61 -1.14,1.79c-6.26,1.36 -11.72,2.04 -16.37,2.04z" fill="#343B54" id="svg_233"/>
       <path d="m69.13,164.16c-1.68,0 -3.89,-1.11 -5.34,-2.23c-1.05,-0.81 -2.34,-2.11 -2.55,-3.7c-0.35,-2.74 1.22,-7.49 4.38,-8.41c0.79,-0.23 1.63,0.23 1.86,1.03c0.23,0.79 -0.23,1.62 -1.02,1.85c-1.2,0.35 -2.48,3.29 -2.24,5.15c0.03,0.25 0.36,0.9 1.41,1.7c1.48,1.15 3.12,1.66 3.54,1.61c0.82,-0.11 1.57,0.47 1.68,1.29c0.11,0.82 -0.47,1.58 -1.29,1.68c-0.14,0.02 -0.29,0.03 -0.43,0.03z" fill="#343B54" id="svg_234"/>
      </g>
      <g id="svg_235">
       <path d="m115.44,160.39c-4.59,0 -9.99,-0.68 -16.18,-2.05c-0.81,-0.17 -1.32,-0.97 -1.15,-1.78c0.18,-0.81 0.97,-1.33 1.79,-1.15c15.58,3.44 25.89,2.37 29.82,-3.09c6.2,-8.63 -4.05,-25.87 -4.15,-26.05c-0.43,-0.7 -0.2,-1.63 0.51,-2.05c0.71,-0.43 1.63,-0.2 2.06,0.51c0.47,0.77 11.36,19.1 4.02,29.33c-3.02,4.22 -8.62,6.33 -16.72,6.33z" fill="#343B54" id="svg_236"/>
       <path d="m99.34,164.16c-0.15,0 -0.29,-0.01 -0.42,-0.03c-0.83,-0.11 -1.4,-0.86 -1.3,-1.68c0.11,-0.82 0.85,-1.4 1.68,-1.29c0.41,0.05 2,-0.45 3.45,-1.57c0.92,-0.72 1.38,-1.39 1.43,-1.74c0.23,-1.86 -1.02,-4.8 -2.21,-5.15c-0.79,-0.23 -1.25,-1.06 -1.01,-1.86c0.23,-0.79 1.06,-1.25 1.86,-1.01c3.13,0.91 4.68,5.66 4.33,8.4c-0.2,1.6 -1.51,2.92 -2.57,3.74c-1.43,1.09 -3.6,2.19 -5.24,2.19z" fill="#343B54" id="svg_237"/>
      </g>
     </g>
    </g>
   </g>
  </g>
 </g>
</svg>