<?xml version="1.0"?>
<svg width="200" height="250" xmlns="http://www.w3.org/2000/svg" xmlns:svg="http://www.w3.org/2000/svg" enable-background="new 0 0 500 500" version="1.1" xml:space="preserve">
 <g class="layer">
  <title>Layer 1</title>
  <g id="OBJECTS">
   <g id="svg_2">
    <g id="svg_151">
     <g id="svg_188">
      <g id="svg_189" transform="matrix(1 0 0 1 0 0)">
       <ellipse cx="209.62" cy="-113.74" fill="#FFFFFF" id="svg_190" rx="37.45" ry="37.45" transform="matrix(0.709864 -1.01399 1.01399 0.709864 66.0805 374.788)"/>
       <path d="m113.13,122.93c-25.2,4.44 -49.25,-12.39 -53.69,-37.59c-2.27,-12.8 0.97,-25.29 7.98,-35.08c17.19,-13.08 58.87,-5.05 59.7,-6.02c-5.4,-4.81 -52.58,-5.85 -52.74,-1.7c-15.18,9.82 -23.83,28.09 -20.49,47c4.44,25.21 28.49,42.05 53.69,37.59c8.74,-1.53 16.46,-5.43 22.65,-10.92c-5.05,3.27 -10.82,5.59 -17.11,6.71l0.01,0.01z" fill="#EBF0F7" id="svg_191"/>
      </g>
      <g id="svg_192">
       <path d="m103.53,13.54c-0.74,5.42 -5.74,9.22 -11.16,8.48c-5.43,-0.74 -9.22,-5.74 -8.49,-11.16c0.74,-5.43 5.74,-9.22 11.18,-8.48s9.22,5.73 8.48,11.16l-0.01,0z" fill="#FFFFFF" id="svg_193" transform="matrix(1 0 0 1 0 0)"/>
       <path d="m95.83,18.4c-5.42,-0.74 -9.22,-5.74 -8.48,-11.16c0.17,-1.26 0.58,-2.44 1.16,-3.48c-2.44,1.5 -4.22,4.04 -4.64,7.1c-0.73,5.42 3.06,10.42 8.49,11.16c4.16,0.57 8.06,-1.53 9.99,-5c-1.88,1.15 -4.16,1.7 -6.52,1.37l0,0.01z" fill="#EBF0F7" id="svg_194"/>
       <path d="m70.8,39.33l54.92,-0.76c0,0 -4.81,-22.97 -28.27,-23.28c-23.44,-0.31 -26.65,24.04 -26.65,24.04z" fill="#f72727" id="svg_195" transform="matrix(1 0 0 1 0 0)"/>
       <g id="svg_196">
        <path d="m95.04,15.35c-21.25,1.32 -24.24,23.98 -24.24,23.98l6.55,-0.09c0.59,-5.69 3.52,-19.45 17.69,-23.89z" fill="#d33030" id="svg_197"/>
       </g>
       <path d="m70.05,43.39l0.04,-3.76c0,-0.52 0.36,-0.95 0.85,-1.11c15.94,-6.45 41.34,-7.49 55.18,-0.45c0.48,0.2 0.84,0.61 0.84,1.13l0,3.71c0,0.76 -0.69,1.29 -1.42,1.13c-18.15,-4.27 -36.61,-3.89 -54.05,0.48c-0.73,0.19 -1.44,-0.37 -1.44,-1.13z" fill="#FFFFFF" id="svg_198"/>
      </g>
      <g id="svg_199">
       <g id="svg_200">
        <path d="m73.75,86.31c-11.39,0 -20.65,-9.26 -20.65,-20.65s9.26,-20.65 20.65,-20.65s20.65,9.26 20.65,20.65s-9.27,20.65 -20.65,20.65zm0,-38.82c-10.03,0 -18.17,8.16 -18.17,18.17c0,10.01 8.14,18.17 18.17,18.17c10.01,0 18.17,-8.16 18.17,-18.17c-0.01,-10.01 -8.16,-18.17 -18.17,-18.17z" fill="#343B54" id="svg_201"/>
        <path d="m124.99,86.31c-11.38,0 -20.63,-9.26 -20.63,-20.65s9.26,-20.65 20.63,-20.65s20.65,9.26 20.65,20.65s-9.26,20.65 -20.65,20.65zm0,-38.82c-10.01,0 -18.16,8.16 -18.16,18.17c0,10.01 8.14,18.17 18.16,18.17c10.03,0 18.17,-8.16 18.17,-18.17c0,-10.01 -8.14,-18.17 -18.17,-18.17z" fill="#343B54" id="svg_202"/>
        <path d="m92.75,62.94c-0.25,0 -0.51,-0.07 -0.72,-0.24c-0.56,-0.4 -0.69,-1.16 -0.3,-1.72c1.41,-1.98 3.61,-3.21 6.23,-3.45c3.21,-0.3 6.44,0.9 8.9,3.28c0.48,0.47 0.51,1.25 0.02,1.75c-0.47,0.5 -1.25,0.51 -1.75,0.04c-1.92,-1.86 -4.52,-2.82 -6.96,-2.59c-1.87,0.17 -3.44,1.03 -4.43,2.41c-0.24,0.33 -0.62,0.52 -1,0.52l0.01,0z" fill="#343B54" id="svg_203"/>
       </g>
       <path d="m64.82,49.07c0.48,-0.4 1.05,-0.72 1.6,-1.01c0.74,-0.4 1.5,-0.74 2.25,-1.1c-0.33,-0.33 -0.78,-0.57 -1.29,-0.67c-2.55,-0.48 -4.79,-1.32 -6.67,-2.5c-1.94,-1.25 -3.61,-2.93 -4.84,-4.9c-0.43,-0.67 -0.82,-1.41 -1.16,-2.19c0.27,-0.09 0.54,-0.19 0.8,-0.31c1.27,-0.56 2.46,-1.58 3.34,-2.87c0.69,-1.01 1.23,-2.2 1.62,-3.61c0.16,-0.58 0.3,-1.2 0.38,-1.82c0.05,-0.31 0.09,-0.62 0.12,-0.94c0.04,-0.32 0.05,-0.61 0.06,-1l-0.9,-0.02l0.9,0.01c0,-0.06 0,-0.14 0,-0.2c-0.04,-0.69 -0.35,-1.34 -0.87,-1.81c-0.53,-0.46 -1.2,-0.69 -1.89,-0.66c-0.71,0.05 -1.34,0.36 -1.81,0.88c-0.46,0.52 -0.69,1.19 -0.66,1.88c0.01,0.14 0.01,0.37 0,0.56c-0.01,0.21 -0.02,0.43 -0.04,0.66c-0.04,0.45 -0.11,0.87 -0.19,1.27c-0.19,0.88 -0.46,1.62 -0.8,2.2c-0.36,0.62 -0.8,1.06 -1.32,1.34c-0.07,0.04 -0.15,0.07 -0.24,0.11c0,-0.02 -0.01,-0.05 -0.01,-0.07c-0.26,-1.16 -0.46,-2.38 -0.57,-3.61c-0.05,-0.62 -0.09,-1.23 -0.1,-1.83c0,-0.31 -0.01,-0.61 0,-0.9c0,-0.28 0.01,-0.61 0.02,-0.8c0.01,-0.05 0.01,-0.11 0.01,-0.16c0.04,-0.83 -0.26,-1.63 -0.84,-2.25c-0.57,-0.61 -1.34,-0.97 -2.18,-1c-0.83,-0.01 -1.63,0.27 -2.25,0.84c-0.61,0.57 -0.97,1.35 -1,2.18c-0.01,0.48 -0.01,0.83 0,1.24c0.01,0.37 0.04,0.76 0.05,1.13c0.05,0.8 0.14,1.57 0.22,2.23c0.2,1.51 0.5,2.98 0.88,4.38c0.72,2.66 1.75,5.05 3.03,7.14l-0.02,0c-0.06,0 -0.12,-0.01 -0.19,-0.01c-0.06,-0.01 -0.14,-0.01 -0.19,-0.01l-0.9,-0.06c-0.17,-0.02 -0.33,-0.06 -0.5,-0.1c-0.14,-0.02 -0.27,-0.06 -0.37,-0.07l-0.2,-0.04c-0.07,-0.02 -0.15,-0.04 -0.15,-0.02l-0.88,-0.32l-0.36,-0.16c-0.95,-0.43 -1.82,-1.13 -2.59,-2.03c-0.12,-0.14 -0.22,-0.28 -0.33,-0.43l-0.2,-0.26c-0.05,-0.1 -0.11,-0.19 -0.17,-0.28c-0.1,-0.15 -0.19,-0.28 -0.28,-0.46c-0.14,-0.25 -0.27,-0.51 -0.38,-0.78c-0.11,-0.24 -0.22,-0.53 -0.27,-0.69l-0.05,-0.14c-0.21,-0.64 -0.66,-1.15 -1.26,-1.45c-0.59,-0.3 -1.29,-0.35 -1.92,-0.12c-0.63,0.21 -1.15,0.66 -1.45,1.26c-0.3,0.61 -0.33,1.29 -0.12,1.92c0.17,0.52 0.35,0.89 0.54,1.32c0.17,0.36 0.38,0.74 0.62,1.15c0.15,0.26 0.32,0.51 0.5,0.76l0.46,0.63c0.2,0.26 0.4,0.51 0.62,0.76c0.25,0.28 0.52,0.54 0.79,0.8c-0.42,0.28 -0.92,0.47 -1.55,0.61c-0.58,0.1 -1.2,0.09 -1.82,-0.06c-0.27,-0.06 -0.64,-0.16 -0.99,-0.31c-0.15,-0.06 -0.31,-0.14 -0.46,-0.21c-0.14,-0.06 -0.3,-0.16 -0.37,-0.21l-0.07,-0.05c-1.08,-0.67 -2.45,-0.37 -3.16,0.67c-0.35,0.52 -0.47,1.14 -0.35,1.73c0.12,0.61 0.47,1.14 0.98,1.47c0.33,0.22 0.57,0.36 0.84,0.51c0.27,0.14 0.54,0.26 0.8,0.37c0.5,0.21 1.03,0.38 1.7,0.56c0.73,0.17 1.47,0.26 2.2,0.26c0.51,0 1,-0.04 1.5,-0.12c1.31,-0.22 2.51,-0.71 3.4,-1.32c0.42,-0.24 0.77,-0.53 1.06,-0.79c0.12,-0.1 0.24,-0.2 0.41,-0.33c0.05,-0.05 0.09,-0.09 0.12,-0.14l1.21,0.43c0.15,0.04 0.3,0.06 0.45,0.09l0.59,0.11c0.31,0.05 0.61,0.11 0.95,0.14l1.44,0.06c0.09,0 0.19,0.01 0.28,0.01c0.07,0 0.15,-0.01 0.24,-0.01l1.86,-0.17c0.42,-0.07 0.83,-0.16 1.25,-0.26c1.26,1.26 2.7,2.36 4.23,3.26c1.6,0.92 3.38,1.62 5.29,2.14c0.52,-0.43 1,-0.93 1.53,-1.35l0.04,-0.08z" fill="#343B54" id="svg_204"/>
       <path d="m134.25,49.07c-0.48,-0.4 -1.05,-0.72 -1.6,-1.01c-0.74,-0.4 -1.5,-0.74 -2.25,-1.1c0.35,-0.33 0.78,-0.57 1.29,-0.67c2.55,-0.48 4.79,-1.32 6.67,-2.5c1.94,-1.25 3.63,-2.93 4.84,-4.9c0.43,-0.67 0.82,-1.41 1.16,-2.19c-0.27,-0.09 -0.54,-0.19 -0.79,-0.31c-1.29,-0.56 -2.48,-1.58 -3.35,-2.87c-0.69,-1.01 -1.21,-2.2 -1.61,-3.61c-0.17,-0.58 -0.3,-1.2 -0.4,-1.82c-0.05,-0.31 -0.09,-0.62 -0.12,-0.94c-0.02,-0.32 -0.05,-0.61 -0.06,-1l0.9,-0.02l-0.9,0.01c0,-0.06 0,-0.14 0.01,-0.2c0.04,-0.69 0.35,-1.34 0.87,-1.81c0.52,-0.46 1.19,-0.69 1.89,-0.66c0.69,0.05 1.34,0.36 1.79,0.88c0.47,0.52 0.71,1.19 0.66,1.88c0,0.14 0,0.37 0,0.56c0.01,0.21 0.02,0.43 0.05,0.66c0.04,0.45 0.1,0.87 0.19,1.27c0.19,0.88 0.45,1.62 0.79,2.2c0.37,0.62 0.8,1.06 1.32,1.34c0.07,0.04 0.15,0.07 0.24,0.11c0,-0.02 0.01,-0.05 0.02,-0.07c0.26,-1.16 0.45,-2.38 0.56,-3.61c0.05,-0.62 0.09,-1.23 0.1,-1.83c0.01,-0.31 0.01,-0.61 0.01,-0.9c-0.01,-0.28 -0.01,-0.61 -0.04,-0.8c0,-0.05 -0.01,-0.11 -0.01,-0.16c-0.02,-0.83 0.27,-1.63 0.84,-2.25s1.35,-0.97 2.18,-1c0.83,-0.01 1.65,0.27 2.25,0.84c0.62,0.57 0.98,1.35 1,2.18c0.01,0.48 0.01,0.83 0,1.24c-0.01,0.37 -0.02,0.76 -0.05,1.13c-0.05,0.8 -0.14,1.57 -0.22,2.23c-0.2,1.51 -0.5,2.98 -0.87,4.38c-0.72,2.66 -1.76,5.05 -3.03,7.14l0.01,0c0.06,0 0.12,-0.01 0.19,-0.01c0.07,-0.01 0.14,-0.01 0.2,-0.01l0.9,-0.06c0.16,-0.02 0.33,-0.06 0.5,-0.1c0.12,-0.02 0.26,-0.06 0.36,-0.07l0.2,-0.04c0.07,-0.02 0.16,-0.04 0.15,-0.02l0.89,-0.32l0.35,-0.16c0.95,-0.43 1.83,-1.13 2.59,-2.03c0.12,-0.14 0.24,-0.28 0.35,-0.43l0.19,-0.26c0.06,-0.1 0.12,-0.19 0.19,-0.28c0.09,-0.15 0.19,-0.28 0.27,-0.46c0.14,-0.25 0.27,-0.51 0.4,-0.78c0.1,-0.24 0.21,-0.53 0.27,-0.69l0.04,-0.14c0.21,-0.64 0.67,-1.15 1.26,-1.45c0.61,-0.3 1.29,-0.35 1.92,-0.12c0.63,0.21 1.15,0.66 1.45,1.26c0.3,0.61 0.33,1.29 0.12,1.92c-0.17,0.52 -0.33,0.89 -0.54,1.32c-0.17,0.36 -0.38,0.74 -0.62,1.15c-0.15,0.26 -0.32,0.51 -0.5,0.76l-0.46,0.63c-0.2,0.26 -0.4,0.51 -0.62,0.76c-0.25,0.28 -0.52,0.54 -0.79,0.8c0.42,0.28 0.92,0.47 1.55,0.61c0.58,0.1 1.2,0.09 1.82,-0.06c0.28,-0.06 0.64,-0.16 0.99,-0.31c0.16,-0.06 0.31,-0.14 0.46,-0.21c0.14,-0.06 0.3,-0.16 0.37,-0.21l0.07,-0.05c1.08,-0.67 2.46,-0.37 3.16,0.67c0.35,0.52 0.47,1.14 0.35,1.73c-0.12,0.61 -0.47,1.14 -0.98,1.47c-0.33,0.22 -0.57,0.36 -0.84,0.51c-0.27,0.14 -0.54,0.26 -0.8,0.37c-0.5,0.21 -1.03,0.38 -1.7,0.56c-0.72,0.17 -1.47,0.26 -2.2,0.26c-0.51,0 -1,-0.04 -1.5,-0.12c-1.31,-0.22 -2.51,-0.71 -3.4,-1.32c-0.42,-0.24 -0.77,-0.53 -1.06,-0.79c-0.12,-0.1 -0.24,-0.2 -0.41,-0.33c-0.05,-0.05 -0.09,-0.09 -0.12,-0.14l-1.21,0.43c-0.15,0.04 -0.3,0.06 -0.45,0.09l-0.59,0.11c-0.31,0.05 -0.61,0.11 -0.95,0.14l-1.44,0.06c-0.09,0 -0.19,0.01 -0.28,0.01c-0.07,0 -0.15,-0.01 -0.22,-0.01l-1.87,-0.17c-0.42,-0.07 -0.83,-0.16 -1.24,-0.26c-1.27,1.26 -2.71,2.36 -4.25,3.26c-1.6,0.92 -3.38,1.62 -5.29,2.14c-0.52,-0.43 -1,-0.93 -1.53,-1.35l-0.04,-0.08z" fill="#343B54" id="svg_205"/>
      </g>
      <g id="svg_206">
       <path d="m94.1,89.15c3.09,2.88 6.25,2.95 9.51,-0.05c-3.23,1.67 -6.4,1.65 -9.51,0.05z" fill="#EBF0F7" id="svg_209"/>
       <path d="m81.63,73.23c0,1.1 -1.89,2.01 -4.22,2.01c-2.34,0 -4.22,-0.9 -4.22,-2.01s1.88,-2.01 4.22,-2.01c2.33,0 4.22,0.89 4.22,2.01z" fill="#EBF0F7" id="svg_210"/>
       <ellipse cx="123.23" cy="73.23" fill="#EBF0F7" id="svg_211" rx="4.22" ry="2.01"/>
       <path d="m98.59,87.92c-0.09,0 -0.19,0 -0.28,-0.01c-2.96,-0.07 -5.76,-1.37 -7.88,-3.66c-0.24,-0.25 -0.22,-0.64 0.02,-0.88c0.25,-0.24 0.64,-0.22 0.88,0.04c1.91,2.04 4.39,3.21 7.02,3.28c2.83,0.07 5.72,-1.14 8.07,-3.4c0.25,-0.24 0.63,-0.22 0.88,0.02c0.24,0.25 0.22,0.63 -0.02,0.87c-2.51,2.43 -5.58,3.75 -8.68,3.75l-0.01,-0.01z" fill="#343B54" id="svg_212"/>
       <path d="m101.05,69.31c5.64,0 22.01,4.54 22.18,6.76c-0.74,2.74 -16.95,5.14 -22.78,5.11c-6.31,0.01 -7.07,-11.87 0.59,-11.87l0.01,0z" fill="#DEA75A" id="svg_213"/>
      </g>
     </g>
     <g id="svg_214">
      <g id="svg_215">
       <ellipse cx="115.8" cy="64.42" fill="#FFFFFF" id="svg_216" rx="56.58" ry="56.58" transform="matrix(1.14358 -0.473697 0.473697 1.14358 -63.5227 156.282)"/>
       <path d="m107.08,238.19c-38,0 -68.8,-30.8 -68.8,-68.8c0,-24.16 12.48,-45.41 31.33,-57.68c-23.78,11.2 -40.24,35.36 -40.24,63.39c0,38.67 31.35,70.02 70.03,70.02c20.65,0 39.21,-8.95 52.04,-23.17c-11.98,10.13 -27.45,16.24 -44.36,16.24z" fill="#EBF0F7" id="svg_217"/>
      </g>
      <g id="svg_218">
       <path d="m138.48,116.18c-0.94,0.25 -1.88,0.47 -2.83,0.67c-3.38,0.73 -6.82,1.16 -10.26,1.61c-3.54,0.47 -7.08,0.97 -10.66,1.19c-7.08,0.43 -14.1,-0.05 -21.18,-0.25c-6.88,-0.21 -13.81,-0.16 -20.6,-1.47c-3.58,-0.68 -7.03,-1.78 -10.41,-3.08c-21.24,12.2 -35.47,34.61 -35.47,60.25c0,3.55 0.27,7.06 0.8,10.47c35.92,15.71 105.4,14.85 143.05,0c0.53,-3.42 0.82,-6.92 0.82,-10.47c0,-24.73 -13.26,-46.45 -33.26,-58.92z" fill="#f72727" id="svg_219"/>
       <path d="m39.36,179.55c-1.13,-25.51 10.24,-48.57 28.49,-62.89c-1.79,-0.53 -3.56,-1.15 -5.31,-1.82c-21.24,12.2 -35.47,34.61 -35.47,60.25c0,3.55 0.27,7.06 0.8,10.47c3.86,1.68 8.12,3.17 12.67,4.48c-0.62,-3.43 -1.03,-6.92 -1.19,-10.5l0.01,0.01z" fill="#d13030" id="svg_220" transform="matrix(1 0 0 1 0 0)"/>
       <path d="m61.64,107.64c24.79,11.47 50.49,12.43 75.19,0.52c2.08,-1.29 5.55,8.61 3.84,10.74c-12.01,23.94 -60.33,25.5 -82.83,0.25c-1.09,-2.09 1.83,-11.91 3.8,-11.51z" fill="#d13030" id="svg_221"/>
       <path d="m61.64,107.64c24.79,10.04 50.49,10.87 75.19,0.46c2.08,-1.13 5.55,7.54 3.84,9.39c-12.01,20.93 -60.33,22.29 -82.83,0.21c-1.09,-1.82 1.83,-10.41 3.8,-10.06z" fill="#f72727" id="svg_222" transform="matrix(1 0 0 1 0 0)"/>
      </g>
     </g>
     <g id="svg_223">
      <g id="svg_232">
       <path d="m60.59,172.91c-10.2,0 -17.23,-2.65 -20.99,-7.93c-9.04,-12.7 4.53,-35.26 5.11,-36.22c0.54,-0.88 1.68,-1.15 2.56,-0.62c0.87,0.53 1.15,1.68 0.62,2.55c-0.14,0.21 -12.9,21.44 -5.27,32.13c4.88,6.84 17.82,8.21 37.44,3.92c1,-0.21 1.99,0.42 2.2,1.42c0.22,1 -0.41,1.99 -1.41,2.22c-7.75,1.68 -14.51,2.53 -20.26,2.53z" fill="#343B54" id="svg_233"/>
       <path d="m80.75,177.57c-2.08,0 -4.81,-1.37 -6.61,-2.76c-1.3,-1 -2.9,-2.61 -3.16,-4.58c-0.43,-3.39 1.51,-9.27 5.42,-10.41c0.98,-0.28 2.02,0.28 2.3,1.27c0.28,0.98 -0.28,2.01 -1.26,2.29c-1.49,0.43 -3.07,4.07 -2.77,6.37c0.04,0.31 0.45,1.11 1.75,2.1c1.83,1.42 3.86,2.05 4.38,1.99c1.01,-0.14 1.94,0.58 2.08,1.6c0.14,1.01 -0.58,1.96 -1.6,2.08c-0.17,0.02 -0.36,0.04 -0.53,0.04l0,0.01z" fill="#343B54" id="svg_234"/>
      </g>
      <g id="svg_235">
       <path d="m138.07,172.91c-5.68,0 -12.37,-0.84 -20.03,-2.54c-1,-0.21 -1.63,-1.2 -1.42,-2.2c0.22,-1 1.2,-1.65 2.22,-1.42c19.28,4.26 32.05,2.93 36.91,-3.82c7.67,-10.68 -5.01,-32.02 -5.14,-32.24c-0.53,-0.87 -0.25,-2.02 0.63,-2.54c0.88,-0.53 2.02,-0.25 2.55,0.63c0.58,0.95 14.06,23.64 4.98,36.3c-3.74,5.22 -10.67,7.84 -20.7,7.84l0,-0.01z" fill="#343B54" id="svg_236"/>
       <path d="m118.15,177.57c-0.19,0 -0.36,-0.01 -0.52,-0.04c-1.03,-0.14 -1.73,-1.06 -1.61,-2.08c0.14,-1.01 1.05,-1.73 2.08,-1.6c0.51,0.06 2.48,-0.56 4.27,-1.94c1.14,-0.89 1.71,-1.72 1.77,-2.15c0.28,-2.3 -1.26,-5.94 -2.74,-6.37c-0.98,-0.28 -1.55,-1.31 -1.25,-2.3c0.28,-0.98 1.31,-1.55 2.3,-1.25c3.87,1.13 5.79,7.01 5.36,10.4c-0.25,1.98 -1.87,3.61 -3.18,4.63c-1.77,1.35 -4.46,2.71 -6.49,2.71l0.01,-0.01z" fill="#343B54" id="svg_237"/>
      </g>
     </g>
    </g>
   </g>
  </g>
 </g>
</svg>