<?xml version="1.0" encoding="iso-8859-1"?>
<!-- Uploaded to: SVG Repo, www.svgrepo.com, Generator: SVG Repo Mixer Tools -->
<svg height="800px" width="800px" version="1.1" id="Layer_1" xmlns="http://www.w3.org/2000/svg" xmlns:xlink="http://www.w3.org/1999/xlink" 
	 viewBox="0 0 512 512" xml:space="preserve">
<path style="fill:#9D8189;" d="M512,256c0,28.278-22.924,51.2-51.2,51.2H358.4c-28.276,0-51.2,22.922-51.2,51.2v102.4
	c0,28.278-22.923,51.2-51.2,51.2C114.615,512,0,397.385,0,256S114.615,0,256,0S512,114.615,512,256z"/>
<path style="fill:#9D8189;" d="M256,0L256,0l-0.001,512H256c28.276,0,51.2-22.922,51.2-51.2V358.4c0-28.278,22.924-51.2,51.2-51.2
	h102.4c28.276,0,51.2-22.922,51.2-51.2C512,114.615,397.385,0,256,0z"/>
<circle style="fill:#E07188;" cx="120" cy="219.558" r="38.4"/>
<circle style="fill:#98C8ED;" cx="156.442" cy="355.558" r="38.4"/>
<circle style="fill:#95D5A7;" cx="355.558" cy="156.442" r="38.4"/>
<circle style="fill:#F8E99B;" cx="219.558" cy="120" r="38.4"/>
</svg>